<svg width="617" height="247" viewBox="0 0 617 247" fill="none" xmlns="http://www.w3.org/2000/svg">
<path d="M2.608 203.656L10.48 182.184H12.944L20.784 203.656H18.128L15.856 197.384H7.248L5.04 203.656H2.608ZM11.504 185.576L7.984 195.24H15.056L11.568 185.576H11.504Z" fill="black"/>
<path d="M24.639 203.656V189.832H22.303V187.816H24.639V185.512C24.639 182.024 26.719 180.52 29.599 180.52C30.847 180.52 31.711 180.776 32.287 181.064V182.792C31.807 182.696 31.135 182.568 30.047 182.568C28.159 182.568 27.103 183.464 27.103 185.672V187.816H30.751V189.832H27.103V203.656H24.639Z" fill="black"/>
<path d="M34.9828 203.656V189.832H32.6467V187.816H34.9828V185.512C34.9828 182.024 37.0628 180.52 39.9428 180.52C41.1908 180.52 42.0548 180.776 42.6308 181.064V182.792C42.1508 182.696 41.4788 182.568 40.3908 182.568C38.5028 182.568 37.4467 183.464 37.4467 185.672V187.816H41.0948V189.832H37.4467V203.656H34.9828Z" fill="black"/>
<path d="M50.5745 203.944C46.0945 203.944 43.4065 201.064 43.4065 196.008V195.528C43.4065 190.504 46.3185 187.496 50.6065 187.496C55.0865 187.496 57.8065 190.408 57.8065 195.432V195.88C57.8065 200.936 54.8625 203.944 50.5745 203.944ZM50.6385 201.928C53.5185 201.928 55.3105 199.912 55.3105 196.168V195.368C55.3105 190.952 53.1665 189.512 50.5745 189.512C47.6945 189.512 45.9025 191.56 45.9025 195.272V196.072C45.9025 200.488 47.9825 201.928 50.6385 201.928Z" fill="black"/>
<path d="M61.4923 203.656V187.784H63.8282V189.576H63.9882C64.8842 188.552 66.6123 187.624 68.4043 187.624C68.7563 187.624 69.2043 187.656 69.3643 187.688V189.896C68.9483 189.832 68.4683 189.8 68.2123 189.8C66.6123 189.8 65.0763 190.376 63.9563 191.176V203.656H61.4923Z" fill="black"/>
<path d="M78.2188 203.944C75.0508 203.944 71.6267 202.024 71.6267 196.168V195.752C71.6267 189.992 74.6027 187.496 78.6987 187.496C80.6507 187.496 81.9948 188.04 82.8588 188.552V180.744H85.3227V203.656H83.2748L82.9867 202.344H82.8588C81.8988 203.272 80.3628 203.944 78.2188 203.944ZM78.9548 201.928C80.8108 201.928 82.0588 201.224 82.8588 200.584V190.6C82.1228 190.024 80.6507 189.576 79.0187 189.576C76.0107 189.576 74.1868 191.144 74.1868 195.432V196.072C74.1868 200.52 76.1068 201.928 78.9548 201.928Z" fill="black"/>
<path d="M93.8643 203.944C90.9843 203.944 88.9043 202.472 88.9043 199.496C88.9043 196.712 90.6963 195.24 93.7363 194.888L98.0242 194.376V192.712C98.0242 190.248 96.9363 189.608 94.0883 189.608C92.5523 189.608 91.3043 189.832 90.3123 190.12V188.36C91.6883 187.784 93.2243 187.496 95.0483 187.496C98.5363 187.496 100.488 188.936 100.488 192.168V203.656H98.5043L98.2483 202.28H98.0883C97.3523 203.176 96.0083 203.944 93.8643 203.944ZM94.4723 202.024C95.9443 202.024 97.3522 201.544 98.0242 200.872V196.2L94.3763 196.616C92.4243 196.808 91.4643 197.608 91.4643 199.432C91.4643 201.16 92.6483 202.024 94.4723 202.024Z" fill="black"/>
<path d="M110.878 204.008C109.022 204.008 106.494 203.688 105.086 203.144V180.744H107.55V188.84H107.71C108.926 188.104 110.43 187.496 112.606 187.496C115.646 187.496 118.782 189.32 118.782 195.272V195.688C118.782 201 115.998 204.008 110.878 204.008ZM111.006 201.96C113.854 201.96 116.222 200.616 116.222 196.072V195.432C116.222 191.016 114.686 189.576 111.486 189.576C109.854 189.576 108.382 190.216 107.55 190.6V201.384C108.286 201.704 109.406 201.96 111.006 201.96Z" fill="black"/>
<path d="M122.588 203.656V180.744H125.052V203.656H122.588Z" fill="black"/>
<path d="M136.302 203.944C131.31 203.944 128.782 200.904 128.782 195.944V195.496C128.782 189.96 132.046 187.496 135.694 187.496C140.046 187.496 142.094 190.024 142.094 194.952V196.328H131.278C131.406 200.296 133.293 201.832 136.685 201.832C138.797 201.832 140.206 201.32 141.646 200.648V202.472C140.686 203.144 138.862 203.944 136.302 203.944ZM135.629 189.48C133.645 189.48 131.534 190.632 131.278 194.376H139.534C139.534 190.92 138.221 189.48 135.629 189.48Z" fill="black"/>
<path d="M154.18 203.656V180.744H156.612V189.16H156.772C158.148 188.168 160.164 187.496 162.116 187.496C165.22 187.496 166.724 188.776 166.724 191.848V203.656H164.292V192.328C164.292 190.408 163.62 189.608 161.092 189.608C159.588 189.608 157.924 190.152 156.612 190.792V203.656H154.18Z" fill="black"/>
<path d="M171.432 203.656V187.816H173.864V203.656H171.432ZM171.4 184.616V182.056H173.896V184.616H171.4Z" fill="black"/>
<path d="M184.122 208.36C179.29 208.36 177.018 206.952 177.018 204.648C177.018 202.952 178.394 201.96 180.026 201.416V201.256C179.13 201 178.426 200.328 178.426 199.272C178.426 198.28 179.002 197.544 180.218 196.648C179.002 195.848 178.234 194.568 178.234 192.68V192.616C178.234 189.32 180.73 187.496 184.218 187.496C185.018 187.496 185.754 187.592 186.458 187.752H191.834V189.64H188.986C189.722 190.344 190.138 191.304 190.138 192.552V192.584C190.138 195.976 187.514 197.672 184.186 197.672C183.194 197.672 182.298 197.512 181.466 197.224C181.05 197.608 180.73 197.992 180.73 198.504C180.73 199.368 181.242 199.688 182.298 199.688H186.682C189.562 199.688 191.706 200.552 191.706 203.496C191.706 206.216 189.53 208.36 184.122 208.36ZM184.058 206.44C187.802 206.44 189.146 205.48 189.146 203.816C189.146 202.344 188.378 201.864 186.298 201.864H181.722C180.506 202.28 179.578 202.984 179.578 204.328C179.578 205.736 180.922 206.44 184.058 206.44ZM184.186 195.752C186.394 195.752 187.674 194.728 187.674 192.68V192.52C187.674 190.344 186.33 189.352 184.186 189.352C182.01 189.352 180.666 190.504 180.666 192.488V192.648C180.666 194.728 182.074 195.752 184.186 195.752Z" fill="black"/>
<path d="M194.774 203.656V180.744H197.205V189.16H197.366C198.742 188.168 200.757 187.496 202.709 187.496C205.813 187.496 207.317 188.776 207.317 191.848V203.656H204.886V192.328C204.886 190.408 204.213 189.608 201.685 189.608C200.181 189.608 198.517 190.152 197.205 190.792V203.656H194.774Z" fill="black"/>
<path d="M211.258 194.312V192.2H221.818V194.312H211.258Z" fill="black"/>
<path d="M236.046 208.392V202.632H235.918C235.086 203.208 233.646 203.944 231.406 203.944C228.238 203.944 224.814 202.024 224.814 196.168V195.752C224.814 189.48 228.366 187.496 232.59 187.496C235.246 187.496 237.198 188.008 238.51 188.648V208.392H236.046ZM232.142 201.864C233.998 201.864 235.31 201.224 236.046 200.584V190.056C235.182 189.736 233.934 189.48 232.43 189.48C229.422 189.48 227.374 191.144 227.374 195.432V196.072C227.374 200.52 229.262 201.864 232.142 201.864Z" fill="black"/>
<path d="M247.854 203.944C244.75 203.944 242.99 202.376 242.99 199.304V187.784H245.454V198.952C245.454 201 246.19 201.832 248.526 201.832C250.222 201.832 251.63 201.224 252.942 200.584V187.784H255.374V203.656H253.262L253.038 202.216H252.91C251.47 203.208 249.774 203.944 247.854 203.944Z" fill="black"/>
<path d="M263.927 203.944C261.047 203.944 258.967 202.472 258.967 199.496C258.967 196.712 260.759 195.24 263.799 194.888L268.087 194.376V192.712C268.087 190.248 266.999 189.608 264.151 189.608C262.615 189.608 261.367 189.832 260.375 190.12V188.36C261.751 187.784 263.287 187.496 265.111 187.496C268.599 187.496 270.551 188.936 270.551 192.168V203.656H268.567L268.311 202.28H268.151C267.415 203.176 266.071 203.944 263.927 203.944ZM264.535 202.024C266.007 202.024 267.415 201.544 268.087 200.872V196.2L264.439 196.616C262.487 196.808 261.527 197.608 261.527 199.432C261.527 201.16 262.711 202.024 264.535 202.024Z" fill="black"/>
<path d="M275.212 203.656V180.744H277.677V203.656H275.212Z" fill="black"/>
<path d="M282.495 203.656V187.816H284.927V203.656H282.495ZM282.462 184.616V182.056H284.958V184.616H282.462Z" fill="black"/>
<path d="M294.673 203.848C292.177 203.848 290.544 202.76 290.544 200.072V189.832H288.272V187.816H290.544V184.04H292.976V187.816H297.04V189.832H292.976V199.688C292.976 201.224 293.488 201.832 295.312 201.832C295.984 201.832 296.72 201.736 297.36 201.544V203.208C296.72 203.496 296.049 203.848 294.673 203.848Z" fill="black"/>
<path d="M302.052 208.424C301.316 208.424 300.516 208.2 300.068 207.976V206.152C300.452 206.216 301.028 206.376 301.604 206.376C303.14 206.376 304.1 206.12 304.772 204.392L305.252 203.08L299.172 187.784H301.796L306.468 199.848H306.532L310.82 187.784H313.284L307.044 204.648C305.988 207.464 304.676 208.424 302.052 208.424Z" fill="black"/>
<path d="M324.68 203.656V187.784H327.016V189.576H327.176C328.072 188.552 329.8 187.624 331.592 187.624C331.944 187.624 332.392 187.656 332.552 187.688V189.896C332.136 189.832 331.656 189.8 331.4 189.8C329.8 189.8 328.264 190.376 327.144 191.176V203.656H324.68Z" fill="black"/>
<path d="M342.27 203.944C337.278 203.944 334.75 200.904 334.75 195.944V195.496C334.75 189.96 338.014 187.496 341.662 187.496C346.014 187.496 348.062 190.024 348.062 194.952V196.328H337.246C337.374 200.296 339.262 201.832 342.654 201.832C344.766 201.832 346.174 201.32 347.614 200.648V202.472C346.654 203.144 344.83 203.944 342.27 203.944ZM341.598 189.48C339.614 189.48 337.502 190.632 337.246 194.376H345.502C345.502 190.92 344.19 189.48 341.598 189.48Z" fill="black"/>
<path d="M355.774 203.912C353.694 203.912 351.966 203.528 350.654 202.792V200.84C352.03 201.352 353.182 201.832 355.422 201.832C357.95 201.832 358.974 200.936 358.974 199.496C358.974 198.024 358.238 197.384 356.222 196.808L354.654 196.392C352.35 195.752 350.782 194.696 350.782 192.008C350.782 189.32 352.542 187.496 356.19 187.496C358.302 187.496 359.678 187.976 360.51 188.424V190.408C359.678 189.992 358.078 189.576 356.318 189.576C354.174 189.576 353.118 190.312 353.118 191.784C353.118 193.16 353.79 193.736 355.486 194.216L357.086 194.664C360.126 195.464 361.374 196.488 361.374 199.24C361.374 202.248 359.262 203.912 355.774 203.912Z" fill="black"/>
<path d="M371.199 203.944C366.719 203.944 364.031 201.064 364.031 196.008V195.528C364.031 190.504 366.944 187.496 371.232 187.496C375.712 187.496 378.432 190.408 378.432 195.432V195.88C378.432 200.936 375.487 203.944 371.199 203.944ZM371.264 201.928C374.144 201.928 375.936 199.912 375.936 196.168V195.368C375.936 190.952 373.791 189.512 371.199 189.512C368.319 189.512 366.527 191.56 366.527 195.272V196.072C366.527 200.488 368.608 201.928 371.264 201.928Z" fill="black"/>
<path d="M386.885 203.944C383.781 203.944 382.021 202.376 382.021 199.304V187.784H384.485V198.952C384.485 201 385.221 201.832 387.557 201.832C389.253 201.832 390.661 201.224 391.973 200.584V187.784H394.405V203.656H392.293L392.069 202.216H391.941C390.501 203.208 388.805 203.944 386.885 203.944Z" fill="black"/>
<path d="M399.086 203.656V187.784H401.422V189.576H401.582C402.478 188.552 404.206 187.624 405.998 187.624C406.35 187.624 406.798 187.656 406.958 187.688V189.896C406.542 189.832 406.062 189.8 405.806 189.8C404.206 189.8 402.67 190.376 401.55 191.176V203.656H399.086Z" fill="black"/>
<path d="M416.484 203.944C411.94 203.944 409.156 201.256 409.156 196.04V195.56C409.156 189.928 412.484 187.496 416.58 187.496C418.66 187.496 419.909 187.88 420.965 188.552V190.6C419.557 189.96 418.533 189.576 416.453 189.576C413.573 189.576 411.685 191.528 411.685 195.176V195.944C411.685 200.008 413.38 201.832 416.772 201.832C418.916 201.832 420.325 201.16 421.125 200.712V202.696C420.101 203.304 418.692 203.944 416.484 203.944Z" fill="black"/>
<path d="M431.083 203.944C426.091 203.944 423.563 200.904 423.563 195.944V195.496C423.563 189.96 426.827 187.496 430.475 187.496C434.827 187.496 436.875 190.024 436.875 194.952V196.328H426.059C426.187 200.296 428.075 201.832 431.467 201.832C433.579 201.832 434.987 201.32 436.427 200.648V202.472C435.467 203.144 433.643 203.944 431.083 203.944ZM430.411 189.48C428.427 189.48 426.315 190.632 426.059 194.376H434.315C434.315 190.92 433.003 189.48 430.411 189.48Z" fill="black"/>
<path d="M444.587 203.912C442.507 203.912 440.779 203.528 439.467 202.792V200.84C440.843 201.352 441.995 201.832 444.235 201.832C446.763 201.832 447.787 200.936 447.787 199.496C447.787 198.024 447.051 197.384 445.035 196.808L443.467 196.392C441.163 195.752 439.595 194.696 439.595 192.008C439.595 189.32 441.355 187.496 445.003 187.496C447.115 187.496 448.491 187.976 449.323 188.424V190.408C448.491 189.992 446.891 189.576 445.131 189.576C442.987 189.576 441.931 190.312 441.931 191.784C441.931 193.16 442.603 193.736 444.299 194.216L445.899 194.664C448.939 195.464 450.187 196.488 450.187 199.24C450.187 202.248 448.075 203.912 444.587 203.912Z" fill="black"/>
<path d="M466.114 203.944C463.234 203.944 461.154 202.472 461.154 199.496C461.154 196.712 462.946 195.24 465.986 194.888L470.274 194.376V192.712C470.274 190.248 469.186 189.608 466.338 189.608C464.802 189.608 463.554 189.832 462.562 190.12V188.36C463.938 187.784 465.474 187.496 467.298 187.496C470.786 187.496 472.738 188.936 472.738 192.168V203.656H470.754L470.498 202.28H470.338C469.602 203.176 468.258 203.944 466.114 203.944ZM466.722 202.024C468.194 202.024 469.602 201.544 470.274 200.872V196.2L466.626 196.616C464.674 196.808 463.714 197.608 463.714 199.432C463.714 201.16 464.898 202.024 466.722 202.024Z" fill="black"/>
<path d="M477.336 203.656V187.784H479.672V189.16H479.8C481.272 188.2 483.32 187.496 485.272 187.496C488.376 187.496 489.88 188.744 489.88 191.816V203.656H487.448V192.328C487.448 190.408 486.776 189.608 484.248 189.608C482.744 189.608 481.08 190.152 479.768 190.76V203.656H477.336Z" fill="black"/>
<path d="M500.156 203.944C496.988 203.944 493.564 202.024 493.564 196.168V195.752C493.564 189.992 496.54 187.496 500.636 187.496C502.588 187.496 503.932 188.04 504.796 188.552V180.744H507.26V203.656H505.212L504.924 202.344H504.796C503.836 203.272 502.3 203.944 500.156 203.944ZM500.892 201.928C502.748 201.928 503.996 201.224 504.796 200.584V190.6C504.06 190.024 502.588 189.576 500.956 189.576C497.948 189.576 496.124 191.144 496.124 195.432V196.072C496.124 200.52 498.044 201.928 500.892 201.928Z" fill="black"/>
<path d="M524.368 203.912C522.288 203.912 520.56 203.528 519.248 202.792V200.84C520.624 201.352 521.776 201.832 524.016 201.832C526.544 201.832 527.568 200.936 527.568 199.496C527.568 198.024 526.832 197.384 524.816 196.808L523.248 196.392C520.944 195.752 519.376 194.696 519.376 192.008C519.376 189.32 521.136 187.496 524.784 187.496C526.896 187.496 528.272 187.976 529.104 188.424V190.408C528.272 189.992 526.672 189.576 524.912 189.576C522.768 189.576 521.712 190.312 521.712 191.784C521.712 193.16 522.384 193.736 524.08 194.216L525.68 194.664C528.72 195.464 529.968 196.488 529.968 199.24C529.968 202.248 527.856 203.912 524.368 203.912Z" fill="black"/>
<path d="M540.145 203.944C535.153 203.944 532.625 200.904 532.625 195.944V195.496C532.625 189.96 535.889 187.496 539.537 187.496C543.889 187.496 545.937 190.024 545.937 194.952V196.328H535.121C535.249 200.296 537.137 201.832 540.529 201.832C542.641 201.832 544.049 201.32 545.489 200.648V202.472C544.529 203.144 542.705 203.944 540.145 203.944ZM539.473 189.48C537.489 189.48 535.377 190.632 535.121 194.376H543.377C543.377 190.92 542.065 189.48 539.473 189.48Z" fill="black"/>
<path d="M549.617 203.656V187.784H551.953V189.576H552.113C553.009 188.552 554.737 187.624 556.529 187.624C556.881 187.624 557.329 187.656 557.489 187.688V189.896C557.073 189.832 556.593 189.8 556.337 189.8C554.737 189.8 553.201 190.376 552.081 191.176V203.656H549.617Z" fill="black"/>
<path d="M565.312 203.656L559.424 187.784H562.08L566.528 200.552H566.656L571.232 187.784H573.632L567.744 203.656H565.312Z" fill="black"/>
<path d="M576.838 203.656V187.816H579.27V203.656H576.838ZM576.806 184.616V182.056H579.302V184.616H576.806Z" fill="black"/>
<path d="M590.328 203.944C585.784 203.944 583 201.256 583 196.04V195.56C583 189.928 586.328 187.496 590.424 187.496C592.504 187.496 593.752 187.88 594.808 188.552V190.6C593.4 189.96 592.376 189.576 590.296 189.576C587.416 189.576 585.528 191.528 585.528 195.176V195.944C585.528 200.008 587.224 201.832 590.616 201.832C592.76 201.832 594.168 201.16 594.968 200.712V202.696C593.944 203.304 592.536 203.944 590.328 203.944Z" fill="black"/>
<path d="M604.926 203.944C599.934 203.944 597.407 200.904 597.407 195.944V195.496C597.407 189.96 600.671 187.496 604.319 187.496C608.671 187.496 610.719 190.024 610.719 194.952V196.328H599.902C600.03 200.296 601.919 201.832 605.311 201.832C607.423 201.832 608.83 201.32 610.27 200.648V202.472C609.31 203.144 607.486 203.944 604.926 203.944ZM604.254 189.48C602.27 189.48 600.158 190.632 599.902 194.376H608.158C608.158 190.92 606.846 189.48 604.254 189.48Z" fill="black"/>
<path d="M613.407 204.456V201.608H616.191V204.456H613.407Z" fill="black"/>
<path d="M4.752 241.656V220.184H11.12C17.648 220.184 21.264 223.512 21.264 230.36V230.968C21.264 237.72 18.128 241.656 11.152 241.656H4.752ZM7.28 239.48H11.216C16.272 239.48 18.512 237.048 18.512 231.32V230.36C18.512 224.408 15.792 222.36 10.864 222.36H7.28V239.48Z" fill="black"/>
<path d="M31.6765 241.944C26.6845 241.944 24.1565 238.904 24.1565 233.944V233.496C24.1565 227.96 27.4205 225.496 31.0685 225.496C35.4205 225.496 37.4685 228.024 37.4685 232.952V234.328H26.6525C26.7805 238.296 28.6685 239.832 32.0605 239.832C34.1725 239.832 35.5805 239.32 37.0205 238.648V240.472C36.0605 241.144 34.2365 241.944 31.6765 241.944ZM31.0045 227.48C29.0205 227.48 26.9085 228.632 26.6525 232.376H34.9085C34.9085 228.92 33.5965 227.48 31.0045 227.48Z" fill="black"/>
<path d="M45.1805 241.912C43.1005 241.912 41.3725 241.528 40.0605 240.792V238.84C41.4365 239.352 42.5885 239.832 44.8285 239.832C47.3565 239.832 48.3805 238.936 48.3805 237.496C48.3805 236.024 47.6445 235.384 45.6285 234.808L44.0605 234.392C41.7565 233.752 40.1885 232.696 40.1885 230.008C40.1885 227.32 41.9485 225.496 45.5965 225.496C47.7085 225.496 49.0845 225.976 49.9165 226.424V228.408C49.0845 227.992 47.4845 227.576 45.7245 227.576C43.5805 227.576 42.5245 228.312 42.5245 229.784C42.5245 231.16 43.1965 231.736 44.8925 232.216L46.4925 232.664C49.5325 233.464 50.7805 234.488 50.7805 237.24C50.7805 240.248 48.6685 241.912 45.1805 241.912Z" fill="black"/>
<path d="M54.5258 241.656V225.816H56.9578V241.656H54.5258ZM54.4937 222.616V220.056H56.9898V222.616H54.4937Z" fill="black"/>
<path d="M67.2158 246.36C62.3838 246.36 60.1117 244.952 60.1117 242.648C60.1117 240.952 61.4877 239.96 63.1197 239.416V239.256C62.2237 239 61.5198 238.328 61.5198 237.272C61.5198 236.28 62.0958 235.544 63.3118 234.648C62.0958 233.848 61.3277 232.568 61.3277 230.68V230.616C61.3277 227.32 63.8238 225.496 67.3118 225.496C68.1118 225.496 68.8478 225.592 69.5518 225.752H74.9278V227.64H72.0798C72.8158 228.344 73.2318 229.304 73.2318 230.552V230.584C73.2318 233.976 70.6077 235.672 67.2797 235.672C66.2877 235.672 65.3918 235.512 64.5598 235.224C64.1438 235.608 63.8238 235.992 63.8238 236.504C63.8238 237.368 64.3357 237.688 65.3917 237.688H69.7758C72.6558 237.688 74.7998 238.552 74.7998 241.496C74.7998 244.216 72.6238 246.36 67.2158 246.36ZM67.1518 244.44C70.8958 244.44 72.2397 243.48 72.2397 241.816C72.2397 240.344 71.4717 239.864 69.3917 239.864H64.8158C63.5998 240.28 62.6718 240.984 62.6718 242.328C62.6718 243.736 64.0158 244.44 67.1518 244.44ZM67.2797 233.752C69.4877 233.752 70.7677 232.728 70.7677 230.68V230.52C70.7677 228.344 69.4237 227.352 67.2797 227.352C65.1037 227.352 63.7598 228.504 63.7598 230.488V230.648C63.7598 232.728 65.1677 233.752 67.2797 233.752Z" fill="black"/>
<path d="M77.8673 241.656V225.784H80.2032V227.16H80.3312C81.8032 226.2 83.8512 225.496 85.8032 225.496C88.9072 225.496 90.4112 226.744 90.4112 229.816V241.656H87.9792V230.328C87.9792 228.408 87.3073 227.608 84.7793 227.608C83.2753 227.608 81.6112 228.152 80.2992 228.76V241.656H77.8673Z" fill="black"/>
<path d="M101.552 241.944C96.5595 241.944 94.0315 238.904 94.0315 233.944V233.496C94.0315 227.96 97.2955 225.496 100.943 225.496C105.295 225.496 107.344 228.024 107.344 232.952V234.328H96.5275C96.6555 238.296 98.5435 239.832 101.936 239.832C104.048 239.832 105.456 239.32 106.896 238.648V240.472C105.936 241.144 104.112 241.944 101.552 241.944ZM100.88 227.48C98.8955 227.48 96.7835 228.632 96.5275 232.376H104.784C104.784 228.92 103.472 227.48 100.88 227.48Z" fill="black"/>
<path d="M116.688 241.944C113.52 241.944 110.095 240.024 110.095 234.168V233.752C110.095 227.992 113.071 225.496 117.167 225.496C119.119 225.496 120.464 226.04 121.328 226.552V218.744H123.791V241.656H121.744L121.455 240.344H121.328C120.368 241.272 118.832 241.944 116.688 241.944ZM117.424 239.928C119.28 239.928 120.528 239.224 121.328 238.584V228.6C120.592 228.024 119.119 227.576 117.487 227.576C114.479 227.576 112.656 229.144 112.656 233.432V234.072C112.656 238.52 114.576 239.928 117.424 239.928Z" fill="black"/>
<path d="M137.795 241.656V227.832H135.459V225.816H137.795V223.512C137.795 220.024 139.875 218.52 142.755 218.52C144.003 218.52 144.867 218.776 145.443 219.064V220.792C144.963 220.696 144.291 220.568 143.203 220.568C141.315 220.568 140.259 221.464 140.259 223.672V225.816H143.907V227.832H140.259V241.656H137.795Z" fill="black"/>
<path d="M153.387 241.944C148.907 241.944 146.219 239.064 146.219 234.008V233.528C146.219 228.504 149.131 225.496 153.419 225.496C157.899 225.496 160.619 228.408 160.619 233.432V233.88C160.619 238.936 157.675 241.944 153.387 241.944ZM153.451 239.928C156.331 239.928 158.123 237.912 158.123 234.168V233.368C158.123 228.952 155.979 227.512 153.387 227.512C150.507 227.512 148.715 229.56 148.715 233.272V234.072C148.715 238.488 150.795 239.928 153.451 239.928Z" fill="black"/>
<path d="M164.305 241.656V225.784H166.641V227.576H166.801C167.697 226.552 169.425 225.624 171.217 225.624C171.569 225.624 172.017 225.656 172.177 225.688V227.896C171.761 227.832 171.281 227.8 171.025 227.8C169.425 227.8 167.889 228.376 166.769 229.176V241.656H164.305Z" fill="black"/>
<path d="M187.806 241.912C185.726 241.912 183.997 241.528 182.685 240.792V238.84C184.061 239.352 185.214 239.832 187.454 239.832C189.982 239.832 191.006 238.936 191.006 237.496C191.006 236.024 190.27 235.384 188.254 234.808L186.685 234.392C184.381 233.752 182.814 232.696 182.814 230.008C182.814 227.32 184.574 225.496 188.222 225.496C190.334 225.496 191.709 225.976 192.541 226.424V228.408C191.709 227.992 190.109 227.576 188.349 227.576C186.205 227.576 185.149 228.312 185.149 229.784C185.149 231.16 185.821 231.736 187.517 232.216L189.118 232.664C192.158 233.464 193.405 234.488 193.405 237.24C193.405 240.248 191.294 241.912 187.806 241.912Z" fill="black"/>
<path d="M202.079 241.848C199.583 241.848 197.951 240.76 197.951 238.072V227.832H195.679V225.816H197.951V222.04H200.383V225.816H204.447V227.832H200.383V237.688C200.383 239.224 200.895 239.832 202.719 239.832C203.391 239.832 204.127 239.736 204.767 239.544V241.208C204.127 241.496 203.455 241.848 202.079 241.848Z" fill="black"/>
<path d="M213.01 241.944C209.906 241.944 208.146 240.376 208.146 237.304V225.784H210.61V236.952C210.61 239 211.346 239.832 213.682 239.832C215.378 239.832 216.786 239.224 218.098 238.584V225.784H220.53V241.656H218.418L218.194 240.216H218.066C216.626 241.208 214.93 241.944 213.01 241.944Z" fill="black"/>
<path d="M230.875 241.944C227.707 241.944 224.283 240.024 224.283 234.168V233.752C224.283 227.992 227.259 225.496 231.355 225.496C233.307 225.496 234.651 226.04 235.515 226.552V218.744H237.979V241.656H235.931L235.643 240.344H235.515C234.555 241.272 233.019 241.944 230.875 241.944ZM231.611 239.928C233.467 239.928 234.715 239.224 235.515 238.584V228.6C234.779 228.024 233.307 227.576 231.675 227.576C228.667 227.576 226.843 229.144 226.843 233.432V234.072C226.843 238.52 228.763 239.928 231.611 239.928Z" fill="black"/>
<path d="M249.177 241.944C244.185 241.944 241.657 238.904 241.657 233.944V233.496C241.657 227.96 244.921 225.496 248.569 225.496C252.921 225.496 254.969 228.024 254.969 232.952V234.328H244.153C244.281 238.296 246.168 239.832 249.56 239.832C251.672 239.832 253.081 239.32 254.521 238.648V240.472C253.561 241.144 251.737 241.944 249.177 241.944ZM248.504 227.48C246.52 227.48 244.409 228.632 244.153 232.376H252.409C252.409 228.92 251.096 227.48 248.504 227.48Z" fill="black"/>
<path d="M258.648 241.656V225.784H260.984V227.16H261.113C262.585 226.2 264.632 225.496 266.584 225.496C269.688 225.496 271.192 226.744 271.192 229.816V241.656H268.76V230.328C268.76 228.408 268.089 227.608 265.561 227.608C264.057 227.608 262.392 228.152 261.08 228.76V241.656H258.648Z" fill="black"/>
<path d="M280.829 241.848C278.333 241.848 276.701 240.76 276.701 238.072V227.832H274.429V225.816H276.701V222.04H279.133V225.816H283.197V227.832H279.133V237.688C279.133 239.224 279.645 239.832 281.469 239.832C282.141 239.832 282.877 239.736 283.517 239.544V241.208C282.877 241.496 282.205 241.848 280.829 241.848Z" fill="black"/>
<path d="M291.024 241.912C288.944 241.912 287.216 241.528 285.904 240.792V238.84C287.28 239.352 288.432 239.832 290.672 239.832C293.2 239.832 294.224 238.936 294.224 237.496C294.224 236.024 293.488 235.384 291.472 234.808L289.904 234.392C287.6 233.752 286.032 232.696 286.032 230.008C286.032 227.32 287.792 225.496 291.44 225.496C293.552 225.496 294.928 225.976 295.76 226.424V228.408C294.928 227.992 293.328 227.576 291.568 227.576C289.424 227.576 288.368 228.312 288.368 229.784C288.368 231.16 289.04 231.736 290.736 232.216L292.336 232.664C295.376 233.464 296.624 234.488 296.624 237.24C296.624 240.248 294.512 241.912 291.024 241.912Z" fill="black"/>
<path d="M299.281 242.456V239.608H302.066V242.456H299.281Z" fill="black"/>
<path d="M17.9008 117.464C21.4848 117.464 24.4928 115.736 24.4928 108.44V107.48C24.4928 100.696 22.3808 99.032 18.4128 99.032C16.5568 99.032 14.7008 99.608 13.7408 100.12V116.696C14.7008 117.144 16.0448 117.464 17.9008 117.464ZM17.2608 124.952C11.5648 124.952 6.63675 124.056 2.86075 122.648V78.488H13.7408V93.72H14.0608C16.3647 91.864 19.2448 90.712 23.4048 90.712C29.6128 90.712 35.6288 94.36 35.6288 106.328V107.16C35.6288 119.896 29.2928 124.952 17.2608 124.952Z" fill="url(#paint0_linear_87_71)"/>
<path d="M56.0213 97.88C53.5893 97.88 51.2853 99.288 50.8373 104.408H60.8213C60.8213 99.608 59.2213 97.88 56.0213 97.88ZM57.2373 124.888C45.5253 124.888 39.8293 119 39.8293 108.12V107.288C39.8293 97.112 46.1653 90.712 56.0213 90.712C67.0933 90.712 71.2533 96.92 71.2533 107.736V110.552H50.9013C51.5413 115.736 54.4853 117.208 60.0533 117.208C63.9573 117.208 67.3492 116.248 69.9093 115.224V121.944C67.4132 123.416 63.3173 124.888 57.2373 124.888Z" fill="url(#paint1_linear_87_71)"/>
<path d="M89.2828 124.76C82.6908 124.76 78.7868 122.584 78.7868 115.352V98.904H74.6908V91.352H78.7868V83.544H89.7308V91.352H96.3868V98.904H89.7308V113.752C89.7308 116.056 90.6908 116.76 93.3148 116.76C94.4668 116.76 95.6828 116.632 96.5788 116.44V123.48C95.2348 124.12 92.8028 124.76 89.2828 124.76Z" fill="url(#paint2_linear_87_71)"/>
<path d="M114.533 124.76C107.941 124.76 104.037 122.584 104.037 115.352V98.904H99.9408V91.352H104.037V83.544H114.981V91.352H121.637V98.904H114.981V113.752C114.981 116.056 115.941 116.76 118.565 116.76C119.717 116.76 120.933 116.632 121.829 116.44V123.48C120.485 124.12 118.053 124.76 114.533 124.76Z" fill="url(#paint3_linear_87_71)"/>
<path d="M142.271 97.88C139.839 97.88 137.535 99.288 137.087 104.408H147.071C147.071 99.608 145.471 97.88 142.271 97.88ZM143.487 124.888C131.775 124.888 126.079 119 126.079 108.12V107.288C126.079 97.112 132.415 90.712 142.271 90.712C153.343 90.712 157.503 96.92 157.503 107.736V110.552H137.151C137.791 115.736 140.735 117.208 146.303 117.208C150.207 117.208 153.599 116.248 156.159 115.224V121.944C153.663 123.416 149.567 124.888 143.487 124.888Z" fill="url(#paint4_linear_87_71)"/>
<path d="M162.861 124.248V91.288H173.357V95.256H173.677C175.405 92.76 178.413 90.968 181.869 90.968C182.765 90.968 183.405 91.096 183.789 91.224V100.824C183.085 100.696 181.869 100.44 180.973 100.44C178.093 100.44 175.597 101.08 173.805 101.976V124.248H162.861Z" fill="url(#paint5_linear_87_71)"/>
<path d="M11.928 46.312V11.944H0.6V3.304H35.288V11.944H24.024V46.312H11.928Z" fill="black"/>
<path d="M40.267 46.248V0.488007H51.211V15.912H51.467C54.027 13.864 57.419 12.712 61.579 12.712C67.723 12.712 71.307 15.208 71.307 21.736V46.248H60.427V24.744C60.427 22.056 59.275 21.16 56.267 21.16C54.539 21.16 52.491 21.736 51.211 22.248V46.248H40.267Z" fill="black"/>
<path d="M92.74 19.88C90.308 19.88 88.004 21.288 87.556 26.408H97.54C97.54 21.608 95.94 19.88 92.74 19.88ZM93.956 46.888C82.244 46.888 76.548 41 76.548 30.12V29.288C76.548 19.112 82.884 12.712 92.74 12.712C103.812 12.712 107.972 18.92 107.972 29.736V32.552H87.62C88.26 37.736 91.204 39.208 96.772 39.208C100.676 39.208 104.068 38.248 106.628 37.224V43.944C104.132 45.416 100.036 46.888 93.956 46.888Z" fill="black"/>
<path d="M143.838 27.496C146.398 27.496 147.806 26.536 147.806 23.464V22.952C147.806 19.56 146.334 18.792 143.838 18.792C141.214 18.792 139.806 19.816 139.806 22.888V23.4C139.806 26.536 141.214 27.496 143.838 27.496ZM143.454 49.512C148.958 49.512 150.686 48.168 150.686 46.248C150.686 44.328 149.854 44.136 146.462 44.136H139.486C138.142 44.584 137.246 45.16 137.246 46.696C137.246 48.488 138.526 49.512 143.454 49.512ZM143.518 55.848C132.19 55.848 127.326 52.904 127.326 48.424C127.326 45.16 129.95 43.432 133.47 42.344V42.024C131.422 41.192 129.822 39.848 129.822 37.416C129.822 34.792 131.55 33.128 133.918 31.4C131.166 29.736 129.566 27.24 129.566 23.592V23.272C129.566 16.296 135.07 12.712 143.838 12.712C146.014 12.712 148.062 12.904 149.854 13.288H160.926V19.432H156.766C157.47 20.456 157.854 21.48 157.854 23.016V23.336C157.854 30.12 152.35 33.448 143.838 33.448C142.046 33.448 140.51 33.32 139.038 33C138.654 33.512 138.398 33.64 138.398 34.28C138.398 35.432 139.102 35.816 140.894 35.816H150.302C157.278 35.816 161.374 38.312 161.374 44.584C161.374 51.496 155.742 55.848 143.518 55.848Z" fill="black"/>
<path d="M178.185 40.04C179.913 40.04 181.449 39.464 182.153 38.696V32.296L178.312 32.68C175.752 32.936 174.664 33.96 174.664 36.392C174.664 39.208 176.137 40.04 178.185 40.04ZM174.472 46.888C168.456 46.888 164.233 43.88 164.233 37.544C164.233 30.568 169.032 28.264 176.136 27.304L182.153 26.408V25.064C182.153 21.544 180.488 20.84 175.752 20.84C172.424 20.84 169.289 21.288 167.049 21.8V14.632C170.441 13.288 174.793 12.712 179.913 12.712C188.041 12.712 193.032 15.336 193.032 22.824V46.312H184.009L183.241 43.752H182.92C181.512 45.736 178.568 46.888 174.472 46.888Z" fill="black"/>
<path d="M212.377 46.76C205.785 46.76 201.881 44.584 201.881 37.352V20.904H197.784V13.352H201.881V5.54401H212.825V13.352H219.481V20.904H212.825V35.752C212.825 38.056 213.785 38.76 216.409 38.76C217.561 38.76 218.776 38.632 219.672 38.44V45.48C218.328 46.12 215.897 46.76 212.377 46.76Z" fill="black"/>
<path d="M240.115 19.88C237.683 19.88 235.379 21.288 234.931 26.408H244.915C244.915 21.608 243.315 19.88 240.115 19.88ZM241.331 46.888C229.619 46.888 223.923 41 223.923 30.12V29.288C223.923 19.112 230.259 12.712 240.115 12.712C251.187 12.712 255.347 18.92 255.347 29.736V32.552H234.995C235.635 37.736 238.579 39.208 244.147 39.208C248.051 39.208 251.443 38.248 254.003 37.224V43.944C251.507 45.416 247.411 46.888 241.331 46.888Z" fill="black"/>
<path d="M266.672 46.312L258.031 13.288H269.168L273.648 32.424H273.903L278.959 13.288H287.087L292.272 32.424H292.527L296.944 13.288H306.351L297.648 46.312H287.471L282.351 27.752H282.16L276.911 46.312H266.672Z" fill="black"/>
<path d="M322.185 40.04C323.913 40.04 325.448 39.464 326.152 38.696V32.296L322.312 32.68C319.752 32.936 318.665 33.96 318.665 36.392C318.665 39.208 320.137 40.04 322.185 40.04ZM318.472 46.888C312.456 46.888 308.233 43.88 308.233 37.544C308.233 30.568 313.032 28.264 320.136 27.304L326.152 26.408V25.064C326.152 21.544 324.488 20.84 319.752 20.84C316.424 20.84 313.288 21.288 311.048 21.8V14.632C314.44 13.288 318.793 12.712 323.913 12.712C332.041 12.712 337.032 15.336 337.032 22.824V46.312H328.009L327.241 43.752H326.92C325.512 45.736 322.568 46.888 318.472 46.888Z" fill="black"/>
<path d="M350.233 55.656C347.993 55.656 345.177 55.208 343.897 54.632V47.464C345.049 47.656 346.328 47.848 347.416 47.848C350.424 47.848 352.088 47.08 352.92 44.904L353.432 43.496L341.208 13.288H352.6L358.808 31.144H358.936L365.401 13.288H375.64L362.905 47.208C360.665 53.736 357.273 55.656 350.233 55.656Z" fill="black"/>
<path d="M409.501 46.76C402.909 46.76 399.005 44.584 399.005 37.352V20.904H394.91V13.352H399.005V5.54401H409.949V13.352H416.605V20.904H409.949V35.752C409.949 38.056 410.91 38.76 413.534 38.76C414.686 38.76 415.902 38.632 416.798 38.44V45.48C415.454 46.12 413.021 46.76 409.501 46.76Z" fill="black"/>
<path d="M437.944 39.4C441.4 39.4 443.512 37.352 443.512 30.504V29.352C443.512 21.544 441.144 20.136 437.816 20.136C434.232 20.136 432.184 22.312 432.184 29.032V30.248C432.184 37.864 434.552 39.4 437.944 39.4ZM437.88 46.888C426.872 46.888 421.048 40.872 421.048 30.312V29.544C421.048 18.28 428.28 12.712 437.88 12.712C448.824 12.712 454.712 18.472 454.712 29.224V29.992C454.712 41.32 447.416 46.888 437.88 46.888Z" fill="black"/>
<path d="M218.99 96.88C216.558 96.88 214.254 98.288 213.806 103.408H223.79C223.79 98.608 222.19 96.88 218.99 96.88ZM220.206 123.888C208.494 123.888 202.798 118 202.798 107.12V106.288C202.798 96.112 209.134 89.712 218.99 89.712C230.062 89.712 234.222 95.92 234.222 106.736V109.552H213.87C214.51 114.736 217.454 116.208 223.022 116.208C226.926 116.208 230.318 115.248 232.878 114.224V120.944C230.382 122.416 226.286 123.888 220.206 123.888Z" fill="black"/>
<path d="M255.58 115.952C257.628 115.952 259.227 115.248 260.251 114.48V98.288C259.355 97.712 257.755 97.136 255.707 97.136C251.867 97.136 249.564 99.184 249.564 106.224V107.184C249.564 114.224 251.932 115.952 255.58 115.952ZM251.42 123.888C244.508 123.888 238.364 119.28 238.364 107.632V106.928C238.364 94.512 244.636 89.712 253.34 89.712C256.86 89.712 259.163 90.48 260.251 91.12V77.488H271.067V123.248H261.724L261.019 120.752H260.635C258.395 122.864 255.452 123.888 251.42 123.888Z" fill="black"/>
<path d="M287.812 123.888C281.54 123.888 277.764 121.072 277.764 114.352V90.352H288.58V112.048C288.58 114.672 289.732 115.632 292.612 115.632C294.532 115.632 296.196 115.056 297.604 114.48V90.352H308.42V123.312H298.82L298.116 120.432H297.796C294.852 122.672 291.972 123.888 287.812 123.888Z" fill="black"/>
<path d="M330.501 123.888C319.621 123.888 313.86 118.192 313.86 107.376V106.608C313.86 95.408 320.517 89.712 330.949 89.712C335.493 89.712 338.117 90.288 340.165 91.376V99.248C337.989 98.416 336.26 97.904 332.932 97.904C328.324 97.904 325.189 100.272 325.189 105.84V106.864C325.189 113.072 327.557 115.696 333.061 115.696C336.261 115.696 338.757 114.864 340.357 114.288V121.648C338.565 122.8 335.301 123.888 330.501 123.888Z" fill="black"/>
<path d="M358.435 117.04C360.163 117.04 361.698 116.464 362.402 115.696V109.296L358.562 109.68C356.002 109.936 354.915 110.96 354.915 113.392C354.915 116.208 356.387 117.04 358.435 117.04ZM354.722 123.888C348.706 123.888 344.483 120.88 344.483 114.544C344.483 107.568 349.282 105.264 356.386 104.304L362.402 103.408V102.064C362.402 98.544 360.738 97.84 356.002 97.84C352.674 97.84 349.538 98.288 347.298 98.8V91.632C350.69 90.288 355.043 89.712 360.163 89.712C368.291 89.712 373.282 92.336 373.282 99.824V123.312H364.259L363.491 120.752H363.17C361.762 122.736 358.818 123.888 354.722 123.888Z" fill="black"/>
<path d="M392.626 123.76C386.034 123.76 382.13 121.584 382.13 114.352V97.904H378.035V90.352H382.13V82.544H393.074V90.352H399.73V97.904H393.074V112.752C393.074 115.056 394.035 115.76 396.659 115.76C397.811 115.76 399.027 115.632 399.923 115.44V122.48C398.579 123.12 396.146 123.76 392.626 123.76Z" fill="black"/>
<path d="M405.645 86.576V78.256H416.717V86.576H405.645ZM405.709 123.312V90.288H416.653V123.312H405.709Z" fill="black"/>
<path d="M439.194 116.4C442.65 116.4 444.762 114.352 444.762 107.504V106.352C444.762 98.544 442.394 97.136 439.066 97.136C435.482 97.136 433.434 99.312 433.434 106.032V107.248C433.434 114.864 435.802 116.4 439.194 116.4ZM439.13 123.888C428.122 123.888 422.298 117.872 422.298 107.312V106.544C422.298 95.28 429.53 89.712 439.13 89.712C450.074 89.712 455.962 95.472 455.962 106.224V106.992C455.962 118.32 448.666 123.888 439.13 123.888Z" fill="black"/>
<path d="M461.329 123.248V90.288H471.825V93.168H472.146C475.026 90.928 478.482 89.712 482.642 89.712C488.786 89.712 492.37 92.208 492.37 98.736V123.248H481.489V101.744C481.489 99.056 480.337 98.16 477.329 98.16C475.601 98.16 473.553 98.736 472.273 99.248V123.248H461.329Z" fill="black"/>
<path d="M498.315 124.976V115.312H508.811V124.976H498.315Z" fill="black"/>
<defs>
<linearGradient id="paint0_linear_87_71" x1="0.600001" y1="185.69" x2="612.815" y2="-10.0689" gradientUnits="userSpaceOnUse">
<stop stop-color="#1B9CFF"/>
<stop offset="1" stop-color="#00FFFF"/>
</linearGradient>
<linearGradient id="paint1_linear_87_71" x1="0.600001" y1="185.69" x2="612.815" y2="-10.0689" gradientUnits="userSpaceOnUse">
<stop stop-color="#1B9CFF"/>
<stop offset="1" stop-color="#00FFFF"/>
</linearGradient>
<linearGradient id="paint2_linear_87_71" x1="0.600001" y1="185.69" x2="612.815" y2="-10.0689" gradientUnits="userSpaceOnUse">
<stop stop-color="#1B9CFF"/>
<stop offset="1" stop-color="#00FFFF"/>
</linearGradient>
<linearGradient id="paint3_linear_87_71" x1="0.600001" y1="185.69" x2="612.815" y2="-10.0689" gradientUnits="userSpaceOnUse">
<stop stop-color="#1B9CFF"/>
<stop offset="1" stop-color="#00FFFF"/>
</linearGradient>
<linearGradient id="paint4_linear_87_71" x1="0.600001" y1="185.69" x2="612.815" y2="-10.0689" gradientUnits="userSpaceOnUse">
<stop stop-color="#1B9CFF"/>
<stop offset="1" stop-color="#00FFFF"/>
</linearGradient>
<linearGradient id="paint5_linear_87_71" x1="0.600001" y1="185.69" x2="612.815" y2="-10.0689" gradientUnits="userSpaceOnUse">
<stop stop-color="#1B9CFF"/>
<stop offset="1" stop-color="#00FFFF"/>
</linearGradient>
</defs>
</svg>
