<svg width="552" height="115" viewBox="0 0 552 115" fill="none" xmlns="http://www.w3.org/2000/svg">
<path d="M5.38137 109.656L0.00537109 88.184H2.53337L6.75737 105.688H6.85337L11.8774 88.184H13.9254L18.9174 105.688H18.9494L23.1734 88.184H25.4774L20.1334 109.656H17.6694L12.8694 92.472H12.8054L7.87737 109.656H5.38137Z" fill="black"/>
<path d="M34.9026 109.944C30.4226 109.944 27.7346 107.064 27.7346 102.008V101.528C27.7346 96.504 30.6466 93.496 34.9346 93.496C39.4146 93.496 42.1346 96.408 42.1346 101.432V101.88C42.1346 106.936 39.1906 109.944 34.9026 109.944ZM34.9666 107.928C37.8466 107.928 39.6386 105.912 39.6386 102.168V101.368C39.6386 96.952 37.4946 95.512 34.9026 95.512C32.0226 95.512 30.2306 97.56 30.2306 101.272V102.072C30.2306 106.488 32.3106 107.928 34.9666 107.928Z" fill="black"/>
<path d="M45.8204 109.656V93.784H48.1564V95.576H48.3164C49.2124 94.552 50.9404 93.624 52.7324 93.624C53.0844 93.624 53.5324 93.656 53.6924 93.688V95.896C53.2764 95.832 52.7964 95.8 52.5404 95.8C50.9404 95.8 49.4044 96.376 48.2844 97.176V109.656H45.8204Z" fill="black"/>
<path d="M56.8829 109.656V86.744H59.3149V109.656H56.8829ZM66.2909 109.656L59.5709 101.464L65.9709 93.816H68.5949L62.3549 101.272L69.1069 109.656H66.2909Z" fill="black"/>
<path d="M76.1961 109.912C74.1161 109.912 72.3881 109.528 71.0761 108.792V106.84C72.4521 107.352 73.6041 107.832 75.8441 107.832C78.3721 107.832 79.3961 106.936 79.3961 105.496C79.3961 104.024 78.6601 103.384 76.6441 102.808L75.0761 102.392C72.7721 101.752 71.2041 100.696 71.2041 98.008C71.2041 95.32 72.9641 93.496 76.6121 93.496C78.7241 93.496 80.1001 93.976 80.9321 94.424V96.408C80.1001 95.992 78.5001 95.576 76.7401 95.576C74.5961 95.576 73.5401 96.312 73.5401 97.784C73.5401 99.16 74.2121 99.736 75.9081 100.216L77.5081 100.664C80.5481 101.464 81.7961 102.488 81.7961 105.24C81.7961 108.248 79.6841 109.912 76.1961 109.912Z" fill="black"/>
<path d="M100.028 109.944C95.5476 109.944 92.8596 107.064 92.8596 102.008V101.528C92.8596 96.504 95.7716 93.496 100.06 93.496C104.54 93.496 107.26 96.408 107.26 101.432V101.88C107.26 106.936 104.316 109.944 100.028 109.944ZM100.092 107.928C102.972 107.928 104.764 105.912 104.764 102.168V101.368C104.764 96.952 102.62 95.512 100.028 95.512C97.1476 95.512 95.3556 97.56 95.3556 101.272V102.072C95.3556 106.488 97.4356 107.928 100.092 107.928Z" fill="black"/>
<path d="M115.713 109.944C112.609 109.944 110.849 108.376 110.849 105.304V93.784H113.313V104.952C113.313 107 114.049 107.832 116.385 107.832C118.081 107.832 119.489 107.224 120.801 106.584V93.784H123.233V109.656H121.121L120.897 108.216H120.769C119.329 109.208 117.633 109.944 115.713 109.944Z" fill="black"/>
<path d="M132.938 109.848C130.442 109.848 128.81 108.76 128.81 106.072V95.832H126.538V93.816H128.81V90.04H131.242V93.816H135.306V95.832H131.242V105.688C131.242 107.224 131.754 107.832 133.578 107.832C134.25 107.832 134.986 107.736 135.626 107.544V109.208C134.986 109.496 134.314 109.848 132.938 109.848Z" fill="black"/>
<path d="M153.684 109.944C149.204 109.944 146.516 107.064 146.516 102.008V101.528C146.516 96.504 149.428 93.496 153.716 93.496C158.196 93.496 160.916 96.408 160.916 101.432V101.88C160.916 106.936 157.972 109.944 153.684 109.944ZM153.748 107.928C156.628 107.928 158.42 105.912 158.42 102.168V101.368C158.42 96.952 156.276 95.512 153.684 95.512C150.804 95.512 149.012 97.56 149.012 101.272V102.072C149.012 106.488 151.092 107.928 153.748 107.928Z" fill="black"/>
<path d="M165.53 109.656V95.832H163.194V93.816H165.53V91.512C165.53 88.024 167.61 86.52 170.49 86.52C171.738 86.52 172.602 86.776 173.178 87.064V88.792C172.698 88.696 172.026 88.568 170.938 88.568C169.05 88.568 167.994 89.464 167.994 91.672V93.816H171.642V95.832H167.994V109.656H165.53Z" fill="black"/>
<path d="M188.376 109.848C185.88 109.848 184.248 108.76 184.248 106.072V95.832H181.976V93.816H184.248V90.04H186.68V93.816H190.744V95.832H186.68V105.688C186.68 107.224 187.192 107.832 189.016 107.832C189.688 107.832 190.424 107.736 191.064 107.544V109.208C190.424 109.496 189.752 109.848 188.376 109.848Z" fill="black"/>
<path d="M194.539 109.656V86.744H196.971V95.16H197.131C198.507 94.168 200.523 93.496 202.475 93.496C205.579 93.496 207.083 94.776 207.083 97.848V109.656H204.651V98.328C204.651 96.408 203.979 95.608 201.451 95.608C199.947 95.608 198.283 96.152 196.971 96.792V109.656H194.539Z" fill="black"/>
<path d="M218.223 109.944C213.231 109.944 210.703 106.904 210.703 101.944V101.496C210.703 95.96 213.967 93.496 217.615 93.496C221.967 93.496 224.015 96.024 224.015 100.952V102.328H213.199C213.327 106.296 215.215 107.832 218.607 107.832C220.719 107.832 222.127 107.32 223.567 106.648V108.472C222.607 109.144 220.783 109.944 218.223 109.944ZM217.551 95.48C215.567 95.48 213.455 96.632 213.199 100.376H221.455C221.455 96.92 220.143 95.48 217.551 95.48Z" fill="black"/>
<path d="M241.894 110.008C240.038 110.008 237.51 109.688 236.102 109.144V86.744H238.566V94.84H238.726C239.942 94.104 241.446 93.496 243.622 93.496C246.662 93.496 249.798 95.32 249.798 101.272V101.688C249.798 107 247.014 110.008 241.894 110.008ZM242.022 107.96C244.87 107.96 247.238 106.616 247.238 102.072V101.432C247.238 97.016 245.702 95.576 242.502 95.576C240.87 95.576 239.398 96.216 238.566 96.6V107.384C239.302 107.704 240.422 107.96 242.022 107.96Z" fill="black"/>
<path d="M259.715 109.944C255.235 109.944 252.547 107.064 252.547 102.008V101.528C252.547 96.504 255.459 93.496 259.747 93.496C264.227 93.496 266.947 96.408 266.947 101.432V101.88C266.947 106.936 264.003 109.944 259.715 109.944ZM259.779 107.928C262.659 107.928 264.451 105.912 264.451 102.168V101.368C264.451 96.952 262.307 95.512 259.715 95.512C256.835 95.512 255.043 97.56 255.043 101.272V102.072C255.043 106.488 257.123 107.928 259.779 107.928Z" fill="black"/>
<path d="M269.033 109.656L274.441 101.592L269.289 93.784H272.169L276.137 99.832L279.753 93.784H282.409L277.481 101.592L282.793 109.656H279.881L275.849 103.32L271.721 109.656H269.033Z" fill="black"/>
<path d="M284.891 110.456V107.608H287.675V110.456H284.891Z" fill="black"/>
<path d="M301.924 109.656V88.184H314.372V90.328H304.452V97.848H312.1V100.024H304.452V109.656H301.924Z" fill="black"/>
<path d="M318.072 109.656V86.744H320.536V109.656H318.072Z" fill="black"/>
<path d="M329.13 109.944C326.25 109.944 324.17 108.472 324.17 105.496C324.17 102.712 325.962 101.24 329.002 100.888L333.29 100.376V98.712C333.29 96.248 332.202 95.608 329.354 95.608C327.818 95.608 326.57 95.832 325.578 96.12V94.36C326.954 93.784 328.49 93.496 330.314 93.496C333.802 93.496 335.754 94.936 335.754 98.168V109.656H333.77L333.514 108.28H333.354C332.618 109.176 331.274 109.944 329.13 109.944ZM329.738 108.024C331.21 108.024 332.618 107.544 333.29 106.872V102.2L329.642 102.616C327.69 102.808 326.73 103.608 326.73 105.432C326.73 107.16 327.914 108.024 329.738 108.024Z" fill="black"/>
<path d="M345.376 109.848C342.88 109.848 341.248 108.76 341.248 106.072V95.832H338.976V93.816H341.248V90.04H343.68V93.816H347.744V95.832H343.68V105.688C343.68 107.224 344.192 107.832 346.016 107.832C346.688 107.832 347.424 107.736 348.064 107.544V109.208C347.424 109.496 346.752 109.848 345.376 109.848Z" fill="black"/>
<path d="M360.009 109.656V86.744H362.473V109.656H360.009Z" fill="black"/>
<path d="M373.723 109.944C368.731 109.944 366.203 106.904 366.203 101.944V101.496C366.203 95.96 369.467 93.496 373.115 93.496C377.467 93.496 379.515 96.024 379.515 100.952V102.328H368.699C368.827 106.296 370.715 107.832 374.107 107.832C376.219 107.832 377.627 107.32 379.067 106.648V108.472C378.107 109.144 376.283 109.944 373.723 109.944ZM373.051 95.48C371.067 95.48 368.955 96.632 368.699 100.376H376.955C376.955 96.92 375.643 95.48 373.051 95.48Z" fill="black"/>
<path d="M387.067 109.944C384.187 109.944 382.107 108.472 382.107 105.496C382.107 102.712 383.899 101.24 386.939 100.888L391.227 100.376V98.712C391.227 96.248 390.139 95.608 387.291 95.608C385.755 95.608 384.507 95.832 383.515 96.12V94.36C384.891 93.784 386.427 93.496 388.251 93.496C391.739 93.496 393.691 94.936 393.691 98.168V109.656H391.707L391.451 108.28H391.291C390.555 109.176 389.211 109.944 387.067 109.944ZM387.675 108.024C389.147 108.024 390.555 107.544 391.227 106.872V102.2L387.579 102.616C385.627 102.808 384.667 103.608 384.667 105.432C384.667 107.16 385.851 108.024 387.675 108.024Z" fill="black"/>
<path d="M398.289 109.656V93.784H400.625V95.576H400.785C401.681 94.552 403.409 93.624 405.201 93.624C405.553 93.624 406.001 93.656 406.161 93.688V95.896C405.745 95.832 405.265 95.8 405.009 95.8C403.409 95.8 401.873 96.376 400.753 97.176V109.656H398.289Z" fill="black"/>
<path d="M409.352 109.656V93.784H411.688V95.16H411.816C413.288 94.2 415.336 93.496 417.288 93.496C420.392 93.496 421.896 94.744 421.896 97.816V109.656H419.464V98.328C419.464 96.408 418.792 95.608 416.264 95.608C414.76 95.608 413.096 96.152 411.784 96.76V109.656H409.352Z" fill="black"/>
<path d="M426.604 109.656V93.816H429.036V109.656H426.604ZM426.572 90.616V88.056H429.068V90.616H426.572Z" fill="black"/>
<path d="M433.758 109.656V93.784H436.094V95.16H436.222C437.694 94.2 439.742 93.496 441.694 93.496C444.798 93.496 446.302 94.744 446.302 97.816V109.656H443.87V98.328C443.87 96.408 443.198 95.608 440.67 95.608C439.166 95.608 437.502 96.152 436.19 96.76V109.656H433.758Z" fill="black"/>
<path d="M456.45 114.36C451.618 114.36 449.346 112.952 449.346 110.648C449.346 108.952 450.722 107.96 452.354 107.416V107.256C451.458 107 450.754 106.328 450.754 105.272C450.754 104.28 451.33 103.544 452.546 102.648C451.33 101.848 450.562 100.568 450.562 98.68V98.616C450.562 95.32 453.058 93.496 456.546 93.496C457.346 93.496 458.082 93.592 458.786 93.752H464.162V95.64H461.314C462.05 96.344 462.466 97.304 462.466 98.552V98.584C462.466 101.976 459.842 103.672 456.514 103.672C455.522 103.672 454.626 103.512 453.794 103.224C453.378 103.608 453.058 103.992 453.058 104.504C453.058 105.368 453.57 105.688 454.626 105.688H459.01C461.89 105.688 464.034 106.552 464.034 109.496C464.034 112.216 461.858 114.36 456.45 114.36ZM456.386 112.44C460.13 112.44 461.474 111.48 461.474 109.816C461.474 108.344 460.706 107.864 458.626 107.864H454.05C452.834 108.28 451.906 108.984 451.906 110.328C451.906 111.736 453.25 112.44 456.386 112.44ZM456.514 101.752C458.722 101.752 460.002 100.728 460.002 98.68V98.52C460.002 96.344 458.658 95.352 456.514 95.352C454.338 95.352 452.994 96.504 452.994 98.488V98.648C452.994 100.728 454.402 101.752 456.514 101.752Z" fill="black"/>
<path d="M481.844 109.944C477.3 109.944 474.516 107.256 474.516 102.04V101.56C474.516 95.928 477.844 93.496 481.94 93.496C484.02 93.496 485.268 93.88 486.324 94.552V96.6C484.916 95.96 483.892 95.576 481.812 95.576C478.932 95.576 477.044 97.528 477.044 101.176V101.944C477.044 106.008 478.74 107.832 482.132 107.832C484.276 107.832 485.684 107.16 486.484 106.712V108.696C485.46 109.304 484.052 109.944 481.844 109.944Z" fill="black"/>
<path d="M494.682 109.944C491.578 109.944 489.818 108.376 489.818 105.304V93.784H492.282V104.952C492.282 107 493.018 107.832 495.354 107.832C497.05 107.832 498.458 107.224 499.77 106.584V93.784H502.202V109.656H500.09L499.866 108.216H499.738C498.298 109.208 496.602 109.944 494.682 109.944Z" fill="black"/>
<path d="M506.883 109.656V93.784H509.219V95.576H509.379C510.275 94.552 512.003 93.624 513.795 93.624C514.147 93.624 514.595 93.656 514.755 93.688V95.896C514.339 95.832 513.859 95.8 513.603 95.8C512.003 95.8 510.467 96.376 509.347 97.176V109.656H506.883Z" fill="black"/>
<path d="M522.578 109.656L516.69 93.784H519.346L523.794 106.552H523.922L528.498 93.784H530.898L525.01 109.656H522.578Z" fill="black"/>
<path d="M540.536 109.944C535.544 109.944 533.016 106.904 533.016 101.944V101.496C533.016 95.96 536.28 93.496 539.928 93.496C544.28 93.496 546.328 96.024 546.328 100.952V102.328H535.512C535.64 106.296 537.528 107.832 540.92 107.832C543.032 107.832 544.44 107.32 545.88 106.648V108.472C544.92 109.144 543.096 109.944 540.536 109.944ZM539.864 95.48C537.88 95.48 535.768 96.632 535.512 100.376H543.768C543.768 96.92 542.456 95.48 539.864 95.48Z" fill="black"/>
<path d="M549.016 110.456V107.608H551.8V110.456H549.016Z" fill="black"/>
<path d="M34.759 48.016C28.743 48.016 23.687 47.12 20.615 45.456V36.688C24.455 38.096 28.359 39.12 33.351 39.12C38.151 39.12 40.007 37.648 40.007 35.088C40.007 32.592 38.919 31.824 34.759 30.992L31.559 30.352C24.711 29.072 20.551 26.064 20.551 17.04C20.551 8.91199 25.607 3.59999 36.487 3.59999C43.335 3.59999 46.663 4.62399 49.223 5.83998V14.48C46.215 13.456 42.503 12.432 37.639 12.432C33.735 12.432 31.751 13.648 31.751 16.144C31.751 18.384 33.031 19.28 36.807 20.048L40.007 20.624C47.623 22.096 51.783 25.104 51.783 33.808C51.783 43.024 45.895 48.016 34.759 48.016Z" fill="url(#paint0_linear_87_69)"/>
<path d="M57.395 10.576V2.25599H68.467V10.576H57.395ZM57.459 47.312V14.288H68.403V47.312H57.459Z" fill="url(#paint1_linear_87_69)"/>
<path d="M75.392 47.248V14.288H85.888V17.168H86.208C88.96 14.992 92.16 13.712 96.448 13.712C100.224 13.712 102.848 14.8 104.32 17.424H104.576C107.84 14.992 111.552 13.712 115.52 13.712C121.152 13.712 124.544 16.08 124.544 22.608V47.248H113.664V25.68C113.664 23.12 112.64 22.16 110.016 22.16C108.416 22.16 107.008 22.608 105.408 23.248C105.408 23.568 105.472 23.824 105.472 24.016V47.248H94.592V25.68C94.592 23.12 93.504 22.16 90.944 22.16C89.344 22.16 87.616 22.672 86.336 23.248V47.248H75.392Z" fill="url(#paint2_linear_87_69)"/>
<path d="M146.628 40.464C150.532 40.464 152.837 38.736 152.837 31.632V30.608C152.837 23.76 150.724 22.096 147.012 22.096C144.772 22.096 143.045 22.736 142.085 23.376V39.248C143.045 39.888 144.772 40.464 146.628 40.464ZM131.204 56.912V14.352H141.701V17.104H142.02C144.196 14.992 147.141 13.776 151.557 13.776C157.957 13.776 163.972 17.552 163.972 29.584V30.352C163.972 43.344 157.764 47.888 148.74 47.888C145.412 47.888 143.301 47.248 142.085 46.736V56.912H131.204Z" fill="url(#paint3_linear_87_69)"/>
<path d="M169.709 47.248V1.48799H180.653V47.248H169.709Z" fill="url(#paint4_linear_87_69)"/>
<path d="M202.49 20.88C200.058 20.88 197.754 22.288 197.306 27.408H207.29C207.29 22.608 205.69 20.88 202.49 20.88ZM203.706 47.888C191.994 47.888 186.298 42 186.298 31.12V30.288C186.298 20.112 192.634 13.712 202.49 13.712C213.562 13.712 217.722 19.92 217.722 30.736V33.552H197.37C198.01 38.736 200.954 40.208 206.522 40.208C210.426 40.208 213.818 39.248 216.378 38.224V44.944C213.882 46.416 209.786 47.888 203.706 47.888Z" fill="url(#paint5_linear_87_69)"/>
<path d="M222.439 48.976V39.312H232.936V48.976H222.439Z" fill="url(#paint6_linear_87_69)"/>
<path d="M256.659 47.312V4.30399H286.354V12.944H268.562V21.136H282.451V29.584H268.562V38.672H286.93V47.312H256.659Z" fill="url(#paint7_linear_87_69)"/>
<path d="M294.444 47.312V21.968H290.284V14.352H294.444V11.088C294.444 4.11199 299.372 0.911987 306.22 0.911987C309.548 0.911987 312.236 1.48799 313.452 1.93599V8.65599C312.62 8.52799 311.213 8.33599 309.805 8.33599C306.733 8.33599 305.388 9.55199 305.388 12.368V14.352H311.917V21.968H305.388V47.312H294.444Z" fill="url(#paint8_linear_87_69)"/>
<path d="M319.319 47.312V21.968H315.159V14.352H319.319V11.088C319.319 4.11199 324.247 0.911987 331.095 0.911987C334.423 0.911987 337.111 1.48799 338.327 1.93599V8.65599C337.495 8.52799 336.088 8.33599 334.68 8.33599C331.608 8.33599 330.263 9.55199 330.263 12.368V14.352H336.792V21.968H330.263V47.312H319.319Z" fill="url(#paint9_linear_87_69)"/>
<path d="M356.49 20.88C354.058 20.88 351.754 22.288 351.306 27.408H361.29C361.29 22.608 359.69 20.88 356.49 20.88ZM357.706 47.888C345.994 47.888 340.298 42 340.298 31.12V30.288C340.298 20.112 346.634 13.712 356.49 13.712C367.562 13.712 371.722 19.92 371.722 30.736V33.552H351.37C352.01 38.736 354.954 40.208 360.522 40.208C364.426 40.208 367.818 39.248 370.378 38.224V44.944C367.882 46.416 363.786 47.888 357.706 47.888Z" fill="url(#paint10_linear_87_69)"/>
<path d="M392.375 47.888C381.495 47.888 375.736 42.192 375.736 31.376V30.608C375.736 19.408 382.391 13.712 392.823 13.712C397.367 13.712 399.991 14.288 402.039 15.376V23.248C399.863 22.416 398.135 21.904 394.807 21.904C390.199 21.904 387.064 24.272 387.064 29.84V30.864C387.064 37.072 389.431 39.696 394.935 39.696C398.135 39.696 400.632 38.864 402.232 38.288V45.648C400.44 46.8 397.175 47.888 392.375 47.888Z" fill="url(#paint11_linear_87_69)"/>
<path d="M420.814 47.76C414.222 47.76 410.318 45.584 410.318 38.352V21.904H406.222V14.352H410.318V6.54399H421.262V14.352H427.918V21.904H421.262V36.752C421.262 39.056 422.222 39.76 424.846 39.76C425.998 39.76 427.214 39.632 428.11 39.44V46.48C426.766 47.12 424.334 47.76 420.814 47.76Z" fill="url(#paint12_linear_87_69)"/>
<path d="M433.832 10.576V2.25599H444.905V10.576H433.832ZM433.896 47.312V14.288H444.84V47.312H433.896Z" fill="url(#paint13_linear_87_69)"/>
<path d="M461.109 47.312L449.461 14.288H460.853L467.254 34.96H467.445L473.845 14.288H484.086L472.438 47.312H461.109Z" fill="url(#paint14_linear_87_69)"/>
<path d="M503.365 20.88C500.933 20.88 498.629 22.288 498.181 27.408H508.165C508.165 22.608 506.565 20.88 503.365 20.88ZM504.581 47.888C492.869 47.888 487.173 42 487.173 31.12V30.288C487.173 20.112 493.509 13.712 503.365 13.712C514.437 13.712 518.597 19.92 518.597 30.736V33.552H498.245C498.885 38.736 501.829 40.208 507.397 40.208C511.301 40.208 514.693 39.248 517.253 38.224V44.944C514.757 46.416 510.661 47.888 504.581 47.888Z" fill="url(#paint15_linear_87_69)"/>
<path d="M523.315 48.976V39.312H533.81V48.976H523.315Z" fill="url(#paint16_linear_87_69)"/>
<defs>
<linearGradient id="paint0_linear_87_69" x1="522" y1="5" x2="36.5" y2="50" gradientUnits="userSpaceOnUse">
<stop stop-color="#1AA2FF"/>
<stop offset="1" stop-color="#02FAFF"/>
</linearGradient>
<linearGradient id="paint1_linear_87_69" x1="522" y1="5" x2="36.5" y2="50" gradientUnits="userSpaceOnUse">
<stop stop-color="#1AA2FF"/>
<stop offset="1" stop-color="#02FAFF"/>
</linearGradient>
<linearGradient id="paint2_linear_87_69" x1="522" y1="5" x2="36.5" y2="50" gradientUnits="userSpaceOnUse">
<stop stop-color="#1AA2FF"/>
<stop offset="1" stop-color="#02FAFF"/>
</linearGradient>
<linearGradient id="paint3_linear_87_69" x1="522" y1="5" x2="36.5" y2="50" gradientUnits="userSpaceOnUse">
<stop stop-color="#1AA2FF"/>
<stop offset="1" stop-color="#02FAFF"/>
</linearGradient>
<linearGradient id="paint4_linear_87_69" x1="522" y1="5" x2="36.5" y2="50" gradientUnits="userSpaceOnUse">
<stop stop-color="#1AA2FF"/>
<stop offset="1" stop-color="#02FAFF"/>
</linearGradient>
<linearGradient id="paint5_linear_87_69" x1="522" y1="5" x2="36.5" y2="50" gradientUnits="userSpaceOnUse">
<stop stop-color="#1AA2FF"/>
<stop offset="1" stop-color="#02FAFF"/>
</linearGradient>
<linearGradient id="paint6_linear_87_69" x1="522" y1="5" x2="36.5" y2="50" gradientUnits="userSpaceOnUse">
<stop stop-color="#1AA2FF"/>
<stop offset="1" stop-color="#02FAFF"/>
</linearGradient>
<linearGradient id="paint7_linear_87_69" x1="522" y1="5" x2="36.5" y2="50" gradientUnits="userSpaceOnUse">
<stop stop-color="#1AA2FF"/>
<stop offset="1" stop-color="#02FAFF"/>
</linearGradient>
<linearGradient id="paint8_linear_87_69" x1="522" y1="5" x2="36.5" y2="50" gradientUnits="userSpaceOnUse">
<stop stop-color="#1AA2FF"/>
<stop offset="1" stop-color="#02FAFF"/>
</linearGradient>
<linearGradient id="paint9_linear_87_69" x1="522" y1="5" x2="36.5" y2="50" gradientUnits="userSpaceOnUse">
<stop stop-color="#1AA2FF"/>
<stop offset="1" stop-color="#02FAFF"/>
</linearGradient>
<linearGradient id="paint10_linear_87_69" x1="522" y1="5" x2="36.5" y2="50" gradientUnits="userSpaceOnUse">
<stop stop-color="#1AA2FF"/>
<stop offset="1" stop-color="#02FAFF"/>
</linearGradient>
<linearGradient id="paint11_linear_87_69" x1="522" y1="5" x2="36.5" y2="50" gradientUnits="userSpaceOnUse">
<stop stop-color="#1AA2FF"/>
<stop offset="1" stop-color="#02FAFF"/>
</linearGradient>
<linearGradient id="paint12_linear_87_69" x1="522" y1="5" x2="36.5" y2="50" gradientUnits="userSpaceOnUse">
<stop stop-color="#1AA2FF"/>
<stop offset="1" stop-color="#02FAFF"/>
</linearGradient>
<linearGradient id="paint13_linear_87_69" x1="522" y1="5" x2="36.5" y2="50" gradientUnits="userSpaceOnUse">
<stop stop-color="#1AA2FF"/>
<stop offset="1" stop-color="#02FAFF"/>
</linearGradient>
<linearGradient id="paint14_linear_87_69" x1="522" y1="5" x2="36.5" y2="50" gradientUnits="userSpaceOnUse">
<stop stop-color="#1AA2FF"/>
<stop offset="1" stop-color="#02FAFF"/>
</linearGradient>
<linearGradient id="paint15_linear_87_69" x1="522" y1="5" x2="36.5" y2="50" gradientUnits="userSpaceOnUse">
<stop stop-color="#1AA2FF"/>
<stop offset="1" stop-color="#02FAFF"/>
</linearGradient>
<linearGradient id="paint16_linear_87_69" x1="522" y1="5" x2="36.5" y2="50" gradientUnits="userSpaceOnUse">
<stop stop-color="#1AA2FF"/>
<stop offset="1" stop-color="#02FAFF"/>
</linearGradient>
</defs>
</svg>
