<svg width="725" height="114" viewBox="0 0 725 114" fill="none" xmlns="http://www.w3.org/2000/svg">
<path d="M68.8145 108.656V87.184H71.8225L82.1585 104.368H82.2545V87.184H84.5585V108.656H81.9345L71.2785 90.64H71.1825V108.656H68.8145Z" fill="black"/>
<path d="M96.239 108.944C91.247 108.944 88.719 105.904 88.719 100.944V100.496C88.719 94.96 91.983 92.496 95.631 92.496C99.983 92.496 102.031 95.024 102.031 99.952V101.328H91.215C91.343 105.296 93.231 106.832 96.623 106.832C98.735 106.832 100.143 106.32 101.583 105.648V107.472C100.623 108.144 98.799 108.944 96.239 108.944ZM95.567 94.48C93.583 94.48 91.471 95.632 91.215 99.376H99.471C99.471 95.92 98.159 94.48 95.567 94.48Z" fill="black"/>
<path d="M109.875 108.656L103.987 92.784H106.643L111.091 105.552H111.219L115.795 92.784H118.195L112.307 108.656H109.875Z" fill="black"/>
<path d="M127.833 108.944C122.841 108.944 120.313 105.904 120.313 100.944V100.496C120.313 94.96 123.577 92.496 127.225 92.496C131.577 92.496 133.625 95.024 133.625 99.952V101.328H122.809C122.937 105.296 124.825 106.832 128.217 106.832C130.329 106.832 131.737 106.32 133.177 105.648V107.472C132.217 108.144 130.393 108.944 127.833 108.944ZM127.161 94.48C125.177 94.48 123.065 95.632 122.809 99.376H131.065C131.065 95.92 129.753 94.48 127.161 94.48Z" fill="black"/>
<path d="M137.305 108.656V92.784H139.641V94.576H139.801C140.697 93.552 142.425 92.624 144.217 92.624C144.569 92.624 145.017 92.656 145.177 92.688V94.896C144.761 94.832 144.281 94.8 144.025 94.8C142.425 94.8 140.889 95.376 139.769 96.176V108.656H137.305Z" fill="black"/>
<path d="M159.846 108.656L155.333 92.784H157.958L161.221 105.488H161.35L165.158 92.784H167.27L171.109 105.488H171.238L174.501 92.784H176.838L172.326 108.656H169.861L166.182 96.56H166.085L162.342 108.656H159.846Z" fill="black"/>
<path d="M186.231 108.944C181.751 108.944 179.063 106.064 179.063 101.008V100.528C179.063 95.504 181.975 92.496 186.263 92.496C190.743 92.496 193.463 95.408 193.463 100.432V100.88C193.463 105.936 190.519 108.944 186.231 108.944ZM186.295 106.928C189.175 106.928 190.967 104.912 190.967 101.168V100.368C190.967 95.952 188.823 94.512 186.231 94.512C183.351 94.512 181.559 96.56 181.559 100.272V101.072C181.559 105.488 183.639 106.928 186.295 106.928Z" fill="black"/>
<path d="M197.148 108.656V92.784H199.484V94.576H199.645C200.541 93.552 202.269 92.624 204.061 92.624C204.413 92.624 204.861 92.656 205.021 92.688V94.896C204.605 94.832 204.124 94.8 203.868 94.8C202.268 94.8 200.733 95.376 199.613 96.176V108.656H197.148Z" fill="black"/>
<path d="M208.211 108.656V92.784H210.547V94.576H210.707C211.603 93.552 213.331 92.624 215.123 92.624C215.475 92.624 215.923 92.656 216.083 92.688V94.896C215.667 94.832 215.187 94.8 214.931 94.8C213.331 94.8 211.795 95.376 210.675 96.176V108.656H208.211Z" fill="black"/>
<path d="M220.49 113.424C219.754 113.424 218.953 113.2 218.505 112.976V111.152C218.889 111.216 219.466 111.376 220.042 111.376C221.578 111.376 222.538 111.12 223.21 109.392L223.689 108.08L217.609 92.784H220.234L224.906 104.848H224.969L229.258 92.784H231.721L225.482 109.648C224.426 112.464 223.114 113.424 220.49 113.424Z" fill="black"/>
<path d="M246.989 108.944C244.109 108.944 242.029 107.472 242.029 104.496C242.029 101.712 243.821 100.24 246.861 99.888L251.149 99.376V97.712C251.149 95.248 250.061 94.608 247.213 94.608C245.677 94.608 244.429 94.832 243.437 95.12V93.36C244.813 92.784 246.349 92.496 248.173 92.496C251.661 92.496 253.613 93.936 253.613 97.168V108.656H251.629L251.373 107.28H251.213C250.477 108.176 249.133 108.944 246.989 108.944ZM247.597 107.024C249.069 107.024 250.477 106.544 251.149 105.872V101.2L247.501 101.616C245.549 101.808 244.589 102.608 244.589 104.432C244.589 106.16 245.773 107.024 247.597 107.024Z" fill="black"/>
<path d="M264.003 109.008C262.147 109.008 259.619 108.688 258.211 108.144V85.744H260.675V93.84H260.835C262.051 93.104 263.555 92.496 265.731 92.496C268.771 92.496 271.907 94.32 271.907 100.272V100.688C271.907 106 269.123 109.008 264.003 109.008ZM264.131 106.96C266.979 106.96 269.347 105.616 269.347 101.072V100.432C269.347 96.016 267.811 94.576 264.611 94.576C262.979 94.576 261.507 95.216 260.675 95.6V106.384C261.411 106.704 262.531 106.96 264.131 106.96Z" fill="black"/>
<path d="M281.824 108.944C277.344 108.944 274.656 106.064 274.656 101.008V100.528C274.656 95.504 277.569 92.496 281.857 92.496C286.337 92.496 289.056 95.408 289.056 100.432V100.88C289.056 105.936 286.112 108.944 281.824 108.944ZM281.888 106.928C284.768 106.928 286.561 104.912 286.561 101.168V100.368C286.561 95.952 284.416 94.512 281.824 94.512C278.944 94.512 277.152 96.56 277.152 100.272V101.072C277.152 105.488 279.232 106.928 281.888 106.928Z" fill="black"/>
<path d="M297.51 108.944C294.406 108.944 292.646 107.376 292.646 104.304V92.784H295.11V103.952C295.11 106 295.846 106.832 298.182 106.832C299.878 106.832 301.286 106.224 302.598 105.584V92.784H305.03V108.656H302.918L302.694 107.216H302.566C301.126 108.208 299.43 108.944 297.51 108.944Z" fill="black"/>
<path d="M314.735 108.848C312.239 108.848 310.607 107.76 310.607 105.072V94.832H308.335V92.816H310.607V89.04H313.039V92.816H317.103V94.832H313.039V104.688C313.039 106.224 313.551 106.832 315.375 106.832C316.047 106.832 316.783 106.736 317.423 106.544V108.208C316.783 108.496 316.111 108.848 314.735 108.848Z" fill="black"/>
<path d="M329.369 108.656V85.744H331.833V108.656H329.369Z" fill="black"/>
<path d="M343.083 108.944C338.091 108.944 335.563 105.904 335.563 100.944V100.496C335.563 94.96 338.827 92.496 342.475 92.496C346.827 92.496 348.875 95.024 348.875 99.952V101.328H338.059C338.187 105.296 340.075 106.832 343.467 106.832C345.579 106.832 346.987 106.32 348.427 105.648V107.472C347.467 108.144 345.643 108.944 343.083 108.944ZM342.411 94.48C340.427 94.48 338.315 95.632 338.059 99.376H346.315C346.315 95.92 345.003 94.48 342.411 94.48Z" fill="black"/>
<path d="M356.427 108.944C353.547 108.944 351.467 107.472 351.467 104.496C351.467 101.712 353.259 100.24 356.299 99.888L360.587 99.376V97.712C360.587 95.248 359.499 94.608 356.651 94.608C355.115 94.608 353.867 94.832 352.875 95.12V93.36C354.251 92.784 355.787 92.496 357.611 92.496C361.099 92.496 363.051 93.936 363.051 97.168V108.656H361.067L360.811 107.28H360.651C359.915 108.176 358.571 108.944 356.427 108.944ZM357.035 107.024C358.507 107.024 359.915 106.544 360.587 105.872V101.2L356.939 101.616C354.987 101.808 354.027 102.608 354.027 104.432C354.027 106.16 355.211 107.024 357.035 107.024Z" fill="black"/>
<path d="M367.648 108.656V92.784H369.984V94.576H370.145C371.041 93.552 372.768 92.624 374.56 92.624C374.912 92.624 375.361 92.656 375.521 92.688V94.896C375.105 94.832 374.624 94.8 374.368 94.8C372.768 94.8 371.232 95.376 370.112 96.176V108.656H367.648Z" fill="black"/>
<path d="M378.711 108.656V92.784H381.047V94.16H381.175C382.647 93.2 384.695 92.496 386.647 92.496C389.751 92.496 391.255 93.744 391.255 96.816V108.656H388.823V97.328C388.823 95.408 388.151 94.608 385.623 94.608C384.119 94.608 382.455 95.152 381.143 95.76V108.656H378.711Z" fill="black"/>
<path d="M395.963 108.656V92.816H398.395V108.656H395.963ZM395.931 89.616V87.056H398.427V89.616H395.931Z" fill="black"/>
<path d="M403.117 108.656V92.784H405.453V94.16H405.581C407.053 93.2 409.101 92.496 411.053 92.496C414.157 92.496 415.661 93.744 415.661 96.816V108.656H413.229V97.328C413.229 95.408 412.557 94.608 410.029 94.608C408.525 94.608 406.861 95.152 405.549 95.76V108.656H403.117Z" fill="black"/>
<path d="M425.81 113.36C420.978 113.36 418.706 111.952 418.706 109.648C418.706 107.952 420.082 106.96 421.714 106.416V106.256C420.818 106 420.113 105.328 420.113 104.272C420.113 103.28 420.689 102.544 421.905 101.648C420.689 100.848 419.922 99.568 419.922 97.68V97.616C419.922 94.32 422.417 92.496 425.905 92.496C426.705 92.496 427.442 92.592 428.146 92.752H433.522V94.64H430.673C431.409 95.344 431.826 96.304 431.826 97.552V97.584C431.826 100.976 429.202 102.672 425.874 102.672C424.882 102.672 423.986 102.512 423.154 102.224C422.738 102.608 422.418 102.992 422.418 103.504C422.418 104.368 422.93 104.688 423.986 104.688H428.37C431.25 104.688 433.393 105.552 433.393 108.496C433.393 111.216 431.218 113.36 425.81 113.36ZM425.746 111.44C429.49 111.44 430.833 110.48 430.833 108.816C430.833 107.344 430.066 106.864 427.986 106.864H423.41C422.194 107.28 421.266 107.984 421.266 109.328C421.266 110.736 422.61 111.44 425.746 111.44ZM425.874 100.752C428.082 100.752 429.362 99.728 429.362 97.68V97.52C429.362 95.344 428.018 94.352 425.874 94.352C423.698 94.352 422.354 95.504 422.354 97.488V97.648C422.354 99.728 423.762 100.752 425.874 100.752Z" fill="black"/>
<path d="M444.867 108.656V92.784H447.203V94.576H447.363C448.259 93.552 449.987 92.624 451.779 92.624C452.131 92.624 452.579 92.656 452.739 92.688V94.896C452.323 94.832 451.843 94.8 451.587 94.8C449.987 94.8 448.451 95.376 447.331 96.176V108.656H444.867Z" fill="black"/>
<path d="M462.458 108.944C457.466 108.944 454.938 105.904 454.938 100.944V100.496C454.938 94.96 458.202 92.496 461.85 92.496C466.202 92.496 468.25 95.024 468.25 99.952V101.328H457.434C457.562 105.296 459.45 106.832 462.842 106.832C464.954 106.832 466.362 106.32 467.802 105.648V107.472C466.842 108.144 465.018 108.944 462.458 108.944ZM461.786 94.48C459.802 94.48 457.69 95.632 457.434 99.376H465.69C465.69 95.92 464.378 94.48 461.786 94.48Z" fill="black"/>
<path d="M475.962 108.912C473.882 108.912 472.154 108.528 470.842 107.792V105.84C472.218 106.352 473.37 106.832 475.61 106.832C478.138 106.832 479.162 105.936 479.162 104.496C479.162 103.024 478.426 102.384 476.41 101.808L474.842 101.392C472.538 100.752 470.97 99.696 470.97 97.008C470.97 94.32 472.73 92.496 476.378 92.496C478.49 92.496 479.866 92.976 480.698 93.424V95.408C479.866 94.992 478.266 94.576 476.506 94.576C474.362 94.576 473.306 95.312 473.306 96.784C473.306 98.16 473.978 98.736 475.674 99.216L477.274 99.664C480.314 100.464 481.562 101.488 481.562 104.24C481.562 107.248 479.45 108.912 475.962 108.912Z" fill="black"/>
<path d="M491.387 108.944C486.907 108.944 484.219 106.064 484.219 101.008V100.528C484.219 95.504 487.131 92.496 491.419 92.496C495.899 92.496 498.619 95.408 498.619 100.432V100.88C498.619 105.936 495.675 108.944 491.387 108.944ZM491.451 106.928C494.331 106.928 496.123 104.912 496.123 101.168V100.368C496.123 95.952 493.979 94.512 491.387 94.512C488.507 94.512 486.715 96.56 486.715 100.272V101.072C486.715 105.488 488.795 106.928 491.451 106.928Z" fill="black"/>
<path d="M507.073 108.944C503.969 108.944 502.209 107.376 502.209 104.304V92.784H504.673V103.952C504.673 106 505.409 106.832 507.745 106.832C509.441 106.832 510.849 106.224 512.161 105.584V92.784H514.593V108.656H512.481L512.257 107.216H512.129C510.689 108.208 508.993 108.944 507.073 108.944Z" fill="black"/>
<path d="M519.273 108.656V92.784H521.609V94.576H521.77C522.666 93.552 524.393 92.624 526.185 92.624C526.537 92.624 526.986 92.656 527.146 92.688V94.896C526.73 94.832 526.25 94.8 525.994 94.8C524.394 94.8 522.857 95.376 521.737 96.176V108.656H519.273Z" fill="black"/>
<path d="M536.672 108.944C532.128 108.944 529.344 106.256 529.344 101.04V100.56C529.344 94.928 532.672 92.496 536.768 92.496C538.848 92.496 540.096 92.88 541.152 93.552V95.6C539.744 94.96 538.72 94.576 536.64 94.576C533.76 94.576 531.872 96.528 531.872 100.176V100.944C531.872 105.008 533.568 106.832 536.96 106.832C539.104 106.832 540.512 106.16 541.312 105.712V107.696C540.288 108.304 538.88 108.944 536.672 108.944Z" fill="black"/>
<path d="M551.27 108.944C546.278 108.944 543.75 105.904 543.75 100.944V100.496C543.75 94.96 547.014 92.496 550.662 92.496C555.014 92.496 557.062 95.024 557.062 99.952V101.328H546.246C546.374 105.296 548.262 106.832 551.654 106.832C553.766 106.832 555.174 106.32 556.614 105.648V107.472C555.654 108.144 553.83 108.944 551.27 108.944ZM550.598 94.48C548.614 94.48 546.502 95.632 546.246 99.376H554.502C554.502 95.92 553.19 94.48 550.598 94.48Z" fill="black"/>
<path d="M564.774 108.912C562.694 108.912 560.966 108.528 559.654 107.792V105.84C561.03 106.352 562.182 106.832 564.422 106.832C566.95 106.832 567.974 105.936 567.974 104.496C567.974 103.024 567.238 102.384 565.222 101.808L563.654 101.392C561.35 100.752 559.782 99.696 559.782 97.008C559.782 94.32 561.542 92.496 565.19 92.496C567.302 92.496 568.678 92.976 569.51 93.424V95.408C568.678 94.992 567.078 94.576 565.318 94.576C563.174 94.576 562.118 95.312 562.118 96.784C562.118 98.16 562.79 98.736 564.486 99.216L566.086 99.664C569.126 100.464 570.374 101.488 570.374 104.24C570.374 107.248 568.262 108.912 564.774 108.912Z" fill="black"/>
<path d="M586.302 108.944C583.422 108.944 581.342 107.472 581.342 104.496C581.342 101.712 583.134 100.24 586.174 99.888L590.462 99.376V97.712C590.462 95.248 589.374 94.608 586.526 94.608C584.99 94.608 583.742 94.832 582.75 95.12V93.36C584.126 92.784 585.662 92.496 587.486 92.496C590.974 92.496 592.926 93.936 592.926 97.168V108.656H590.942L590.686 107.28H590.526C589.79 108.176 588.446 108.944 586.302 108.944ZM586.91 107.024C588.382 107.024 589.79 106.544 590.462 105.872V101.2L586.814 101.616C584.862 101.808 583.902 102.608 583.902 104.432C583.902 106.16 585.086 107.024 586.91 107.024Z" fill="black"/>
<path d="M602.903 113.36C598.071 113.36 595.799 111.952 595.799 109.648C595.799 107.952 597.175 106.96 598.807 106.416V106.256C597.911 106 597.207 105.328 597.207 104.272C597.207 103.28 597.783 102.544 598.999 101.648C597.783 100.848 597.015 99.568 597.015 97.68V97.616C597.015 94.32 599.511 92.496 602.999 92.496C603.799 92.496 604.535 92.592 605.239 92.752H610.615V94.64H607.767C608.503 95.344 608.919 96.304 608.919 97.552V97.584C608.919 100.976 606.295 102.672 602.967 102.672C601.975 102.672 601.079 102.512 600.247 102.224C599.831 102.608 599.511 102.992 599.511 103.504C599.511 104.368 600.023 104.688 601.079 104.688H605.463C608.343 104.688 610.487 105.552 610.487 108.496C610.487 111.216 608.311 113.36 602.903 113.36ZM602.839 111.44C606.583 111.44 607.927 110.48 607.927 108.816C607.927 107.344 607.159 106.864 605.079 106.864H600.503C599.287 107.28 598.359 107.984 598.359 109.328C598.359 110.736 599.703 111.44 602.839 111.44ZM602.967 100.752C605.175 100.752 606.455 99.728 606.455 97.68V97.52C606.455 95.344 605.111 94.352 602.967 94.352C600.791 94.352 599.447 95.504 599.447 97.488V97.648C599.447 99.728 600.855 100.752 602.967 100.752Z" fill="black"/>
<path d="M617.427 108.944C614.547 108.944 612.467 107.472 612.467 104.496C612.467 101.712 614.259 100.24 617.299 99.888L621.587 99.376V97.712C621.587 95.248 620.499 94.608 617.651 94.608C616.115 94.608 614.867 94.832 613.875 95.12V93.36C615.251 92.784 616.787 92.496 618.611 92.496C622.099 92.496 624.051 93.936 624.051 97.168V108.656H622.067L621.811 107.28H621.651C620.915 108.176 619.571 108.944 617.427 108.944ZM618.035 107.024C619.507 107.024 620.915 106.544 621.587 105.872V101.2L617.939 101.616C615.987 101.808 615.027 102.608 615.027 104.432C615.027 106.16 616.211 107.024 618.035 107.024Z" fill="black"/>
<path d="M628.745 108.656V92.816H631.177V108.656H628.745ZM628.713 89.616V87.056H631.208V89.616H628.713Z" fill="black"/>
<path d="M635.898 108.656V92.784H638.234V94.16H638.362C639.834 93.2 641.882 92.496 643.834 92.496C646.938 92.496 648.443 93.744 648.443 96.816V108.656H646.01V97.328C646.01 95.408 645.338 94.608 642.81 94.608C641.306 94.608 639.643 95.152 638.331 95.76V108.656H635.898Z" fill="black"/>
<path d="M652.063 109.456V106.608H654.847V109.456H652.063Z" fill="black"/>
<path d="M19.6515 47.016C7.2355 47.016 0.963501 41.64 0.963501 30.952V3.36803H13.0595V30.504C13.0595 36.008 15.2995 38.248 20.0355 38.248C24.7715 38.248 26.7555 36.008 26.7555 30.44V3.36803H37.5075V30.888C37.5075 41.576 31.8755 47.016 19.6515 47.016Z" fill="url(#paint0_linear_87_70)"/>
<path d="M44.7045 46.248V13.288H55.2005V16.168H55.5205C58.4005 13.928 61.8565 12.712 66.0165 12.712C72.1605 12.712 75.7445 15.208 75.7445 21.736V46.248H64.8645V24.744C64.8645 22.056 63.7125 21.16 60.7045 21.16C58.9765 21.16 56.9285 21.736 55.6485 22.248V46.248H44.7045Z" fill="url(#paint1_linear_87_70)"/>
<path d="M82.5215 46.248V0.488037H93.4655V46.248H82.5215Z" fill="url(#paint2_linear_87_70)"/>
<path d="M100.583 9.57603V1.25603H111.655V9.57603H100.583ZM100.646 46.312V13.288H111.59V46.312H100.646Z" fill="url(#paint3_linear_87_70)"/>
<path d="M118.579 46.248V13.288H129.076V16.168H129.396C132.148 13.992 135.347 12.712 139.635 12.712C143.411 12.712 146.036 13.8 147.508 16.424H147.764C151.028 13.992 154.74 12.712 158.708 12.712C164.34 12.712 167.732 15.08 167.732 21.608V46.248H156.852V24.68C156.852 22.12 155.828 21.16 153.204 21.16C151.604 21.16 150.196 21.608 148.596 22.248C148.596 22.568 148.66 22.824 148.66 23.016V46.248H137.779V24.68C137.779 22.12 136.692 21.16 134.132 21.16C132.532 21.16 130.803 21.672 129.523 22.248V46.248H118.579Z" fill="url(#paint4_linear_87_70)"/>
<path d="M174.52 9.57603V1.25603H185.592V9.57603H174.52ZM174.584 46.312V13.288H185.528V46.312H174.584Z" fill="url(#paint5_linear_87_70)"/>
<path d="M205.189 46.76C198.597 46.76 194.693 44.584 194.693 37.352V20.904H190.597V13.352H194.693V5.54404H205.637V13.352H212.293V20.904H205.637V35.752C205.637 38.056 206.597 38.76 209.221 38.76C210.373 38.76 211.589 38.632 212.485 38.44V45.48C211.141 46.12 208.709 46.76 205.189 46.76Z" fill="url(#paint6_linear_87_70)"/>
<path d="M232.928 19.88C230.496 19.88 228.191 21.288 227.743 26.408H237.728C237.728 21.608 236.128 19.88 232.928 19.88ZM234.144 46.888C222.432 46.888 216.736 41 216.736 30.12V29.288C216.736 19.112 223.072 12.712 232.928 12.712C244 12.712 248.16 18.92 248.16 29.736V32.552H227.807C228.447 37.736 231.392 39.208 236.96 39.208C240.864 39.208 244.256 38.248 246.816 37.224V43.944C244.32 45.416 240.224 46.888 234.144 46.888Z" fill="url(#paint7_linear_87_70)"/>
<path d="M269.517 38.952C271.565 38.952 273.165 38.248 274.189 37.48V21.288C273.293 20.712 271.693 20.136 269.645 20.136C265.805 20.136 263.501 22.184 263.501 29.224V30.184C263.501 37.224 265.869 38.952 269.517 38.952ZM265.357 46.888C258.445 46.888 252.301 42.28 252.301 30.632V29.928C252.301 17.512 258.573 12.712 267.277 12.712C270.797 12.712 273.101 13.48 274.189 14.12V0.488037H285.005V46.248H275.661L274.957 43.752H274.573C272.333 45.864 269.389 46.888 265.357 46.888Z" fill="url(#paint8_linear_87_70)"/>
<path d="M324.194 39.4C327.65 39.4 329.762 37.352 329.762 30.504V29.352C329.762 21.544 327.394 20.136 324.066 20.136C320.482 20.136 318.434 22.312 318.434 29.032V30.248C318.434 37.864 320.802 39.4 324.194 39.4ZM324.13 46.888C313.122 46.888 307.298 40.872 307.298 30.312V29.544C307.298 18.28 314.53 12.712 324.13 12.712C335.074 12.712 340.962 18.472 340.962 29.224V29.992C340.962 41.32 333.666 46.888 324.13 46.888Z" fill="url(#paint9_linear_87_70)"/>
<path d="M361.754 39.464C365.658 39.464 367.962 37.736 367.962 30.632V29.608C367.962 22.76 365.85 21.096 362.138 21.096C359.898 21.096 358.17 21.736 357.21 22.376V38.248C358.17 38.888 359.898 39.464 361.754 39.464ZM346.329 55.912V13.352H356.826V16.104H357.146C359.322 13.992 362.265 12.776 366.681 12.776C373.081 12.776 379.098 16.552 379.098 28.584V29.352C379.098 42.344 372.89 46.888 363.866 46.888C360.538 46.888 358.426 46.248 357.21 45.736V55.912H346.329Z" fill="url(#paint10_linear_87_70)"/>
<path d="M400.066 39.464C403.97 39.464 406.274 37.736 406.274 30.632V29.608C406.274 22.76 404.162 21.096 400.45 21.096C398.21 21.096 396.482 21.736 395.522 22.376V38.248C396.482 38.888 398.21 39.464 400.066 39.464ZM384.642 55.912V13.352H395.138V16.104H395.458C397.634 13.992 400.578 12.776 404.994 12.776C411.394 12.776 417.41 16.552 417.41 28.584V29.352C417.41 42.344 411.202 46.888 402.178 46.888C398.85 46.888 396.738 46.248 395.522 45.736V55.912H384.642Z" fill="url(#paint11_linear_87_70)"/>
<path d="M438.507 39.4C441.963 39.4 444.074 37.352 444.074 30.504V29.352C444.074 21.544 441.707 20.136 438.379 20.136C434.795 20.136 432.746 22.312 432.746 29.032V30.248C432.746 37.864 435.115 39.4 438.507 39.4ZM438.443 46.888C427.435 46.888 421.611 40.872 421.611 30.312V29.544C421.611 18.28 428.843 12.712 438.443 12.712C449.387 12.712 455.275 18.472 455.275 29.224V29.992C455.275 41.32 447.979 46.888 438.443 46.888Z" fill="url(#paint12_linear_87_70)"/>
<path d="M460.642 46.248V13.288H471.138V17.256H471.458C473.186 14.76 476.194 12.968 479.65 12.968C480.546 12.968 481.186 13.096 481.57 13.224V22.824C480.866 22.696 479.65 22.44 478.754 22.44C475.874 22.44 473.378 23.08 471.586 23.976V46.248H460.642Z" fill="url(#paint13_linear_87_70)"/>
<path d="M500.001 46.76C493.409 46.76 489.505 44.584 489.505 37.352V20.904H485.41V13.352H489.505V5.54404H500.449V13.352H507.105V20.904H500.449V35.752C500.449 38.056 501.41 38.76 504.034 38.76C505.186 38.76 506.402 38.632 507.298 38.44V45.48C505.954 46.12 503.521 46.76 500.001 46.76Z" fill="url(#paint14_linear_87_70)"/>
<path d="M522.812 46.888C516.54 46.888 512.764 44.072 512.764 37.352V13.352H523.58V35.048C523.58 37.672 524.732 38.632 527.612 38.632C529.532 38.632 531.196 38.056 532.604 37.48V13.352H543.42V46.312H533.82L533.116 43.432H532.796C529.852 45.672 526.972 46.888 522.812 46.888Z" fill="url(#paint15_linear_87_70)"/>
<path d="M550.205 46.248V13.288H560.701V16.168H561.021C563.901 13.928 567.356 12.712 571.516 12.712C577.66 12.712 581.245 15.208 581.245 21.736V46.248H570.365V24.744C570.365 22.056 569.213 21.16 566.205 21.16C564.477 21.16 562.428 21.736 561.148 22.248V46.248H550.205Z" fill="url(#paint16_linear_87_70)"/>
<path d="M587.958 9.57603V1.25603H599.029V9.57603H587.958ZM588.021 46.312V13.288H598.966V46.312H588.021Z" fill="url(#paint17_linear_87_70)"/>
<path d="M618.627 46.76C612.035 46.76 608.13 44.584 608.13 37.352V20.904H604.034V13.352H608.13V5.54404H619.075V13.352H625.731V20.904H619.075V35.752C619.075 38.056 620.035 38.76 622.659 38.76C623.811 38.76 625.026 38.632 625.922 38.44V45.48C624.578 46.12 622.147 46.76 618.627 46.76Z" fill="url(#paint18_linear_87_70)"/>
<path d="M631.645 9.57603V1.25603H642.717V9.57603H631.645ZM631.709 46.312V13.288H642.653V46.312H631.709Z" fill="url(#paint19_linear_87_70)"/>
<path d="M664.49 19.88C662.058 19.88 659.754 21.288 659.306 26.408H669.29C669.29 21.608 667.69 19.88 664.49 19.88ZM665.706 46.888C653.994 46.888 648.298 41 648.298 30.12V29.288C648.298 19.112 654.634 12.712 664.49 12.712C675.562 12.712 679.722 18.92 679.722 29.736V32.552H659.37C660.01 37.736 662.954 39.208 668.522 39.208C672.426 39.208 675.818 38.248 678.378 37.224V43.944C675.882 45.416 671.786 46.888 665.706 46.888Z" fill="url(#paint20_linear_87_70)"/>
<path d="M695.32 46.888C690.904 46.888 686.551 46.056 683.927 44.712V37.416C686.487 38.376 689.239 39.336 693.719 39.336C697.687 39.336 699.287 38.376 699.287 36.584C699.287 34.984 698.327 34.408 695.511 34.088L692.503 33.64C686.871 32.808 683.735 29.736 683.735 23.336C683.735 16.744 688.088 12.712 697.24 12.712C701.976 12.712 705.176 13.352 707.672 14.44V21.672C705.56 21.032 702.552 20.2 698.648 20.2C695.384 20.2 693.847 21.032 693.847 22.76C693.847 24.36 694.999 24.936 697.623 25.32L700.695 25.704C707.351 26.6 709.719 30.184 709.719 35.88C709.719 43.112 705.176 46.888 695.32 46.888Z" fill="url(#paint21_linear_87_70)"/>
<path d="M714.502 47.976V38.312H724.998V47.976H714.502Z" fill="url(#paint22_linear_87_70)"/>
<defs>
<linearGradient id="paint0_linear_87_70" x1="706.873" y1="4" x2="28.7395" y2="92.5295" gradientUnits="userSpaceOnUse">
<stop stop-color="#1AA2FF"/>
<stop offset="1" stop-color="#02FAFF"/>
</linearGradient>
<linearGradient id="paint1_linear_87_70" x1="706.873" y1="4" x2="28.7395" y2="92.5295" gradientUnits="userSpaceOnUse">
<stop stop-color="#1AA2FF"/>
<stop offset="1" stop-color="#02FAFF"/>
</linearGradient>
<linearGradient id="paint2_linear_87_70" x1="706.873" y1="4" x2="28.7395" y2="92.5295" gradientUnits="userSpaceOnUse">
<stop stop-color="#1AA2FF"/>
<stop offset="1" stop-color="#02FAFF"/>
</linearGradient>
<linearGradient id="paint3_linear_87_70" x1="706.873" y1="4" x2="28.7395" y2="92.5295" gradientUnits="userSpaceOnUse">
<stop stop-color="#1AA2FF"/>
<stop offset="1" stop-color="#02FAFF"/>
</linearGradient>
<linearGradient id="paint4_linear_87_70" x1="706.873" y1="4" x2="28.7395" y2="92.5295" gradientUnits="userSpaceOnUse">
<stop stop-color="#1AA2FF"/>
<stop offset="1" stop-color="#02FAFF"/>
</linearGradient>
<linearGradient id="paint5_linear_87_70" x1="706.873" y1="4" x2="28.7395" y2="92.5295" gradientUnits="userSpaceOnUse">
<stop stop-color="#1AA2FF"/>
<stop offset="1" stop-color="#02FAFF"/>
</linearGradient>
<linearGradient id="paint6_linear_87_70" x1="706.873" y1="4" x2="28.7395" y2="92.5295" gradientUnits="userSpaceOnUse">
<stop stop-color="#1AA2FF"/>
<stop offset="1" stop-color="#02FAFF"/>
</linearGradient>
<linearGradient id="paint7_linear_87_70" x1="706.873" y1="4" x2="28.7395" y2="92.5295" gradientUnits="userSpaceOnUse">
<stop stop-color="#1AA2FF"/>
<stop offset="1" stop-color="#02FAFF"/>
</linearGradient>
<linearGradient id="paint8_linear_87_70" x1="706.873" y1="4" x2="28.7395" y2="92.5295" gradientUnits="userSpaceOnUse">
<stop stop-color="#1AA2FF"/>
<stop offset="1" stop-color="#02FAFF"/>
</linearGradient>
<linearGradient id="paint9_linear_87_70" x1="706.873" y1="4" x2="28.7395" y2="92.5295" gradientUnits="userSpaceOnUse">
<stop stop-color="#1AA2FF"/>
<stop offset="1" stop-color="#02FAFF"/>
</linearGradient>
<linearGradient id="paint10_linear_87_70" x1="706.873" y1="4" x2="28.7395" y2="92.5295" gradientUnits="userSpaceOnUse">
<stop stop-color="#1AA2FF"/>
<stop offset="1" stop-color="#02FAFF"/>
</linearGradient>
<linearGradient id="paint11_linear_87_70" x1="706.873" y1="4" x2="28.7395" y2="92.5295" gradientUnits="userSpaceOnUse">
<stop stop-color="#1AA2FF"/>
<stop offset="1" stop-color="#02FAFF"/>
</linearGradient>
<linearGradient id="paint12_linear_87_70" x1="706.873" y1="4" x2="28.7395" y2="92.5295" gradientUnits="userSpaceOnUse">
<stop stop-color="#1AA2FF"/>
<stop offset="1" stop-color="#02FAFF"/>
</linearGradient>
<linearGradient id="paint13_linear_87_70" x1="706.873" y1="4" x2="28.7395" y2="92.5295" gradientUnits="userSpaceOnUse">
<stop stop-color="#1AA2FF"/>
<stop offset="1" stop-color="#02FAFF"/>
</linearGradient>
<linearGradient id="paint14_linear_87_70" x1="706.873" y1="4" x2="28.7395" y2="92.5295" gradientUnits="userSpaceOnUse">
<stop stop-color="#1AA2FF"/>
<stop offset="1" stop-color="#02FAFF"/>
</linearGradient>
<linearGradient id="paint15_linear_87_70" x1="706.873" y1="4" x2="28.7395" y2="92.5295" gradientUnits="userSpaceOnUse">
<stop stop-color="#1AA2FF"/>
<stop offset="1" stop-color="#02FAFF"/>
</linearGradient>
<linearGradient id="paint16_linear_87_70" x1="706.873" y1="4" x2="28.7395" y2="92.5295" gradientUnits="userSpaceOnUse">
<stop stop-color="#1AA2FF"/>
<stop offset="1" stop-color="#02FAFF"/>
</linearGradient>
<linearGradient id="paint17_linear_87_70" x1="706.873" y1="4" x2="28.7395" y2="92.5295" gradientUnits="userSpaceOnUse">
<stop stop-color="#1AA2FF"/>
<stop offset="1" stop-color="#02FAFF"/>
</linearGradient>
<linearGradient id="paint18_linear_87_70" x1="706.873" y1="4" x2="28.7395" y2="92.5295" gradientUnits="userSpaceOnUse">
<stop stop-color="#1AA2FF"/>
<stop offset="1" stop-color="#02FAFF"/>
</linearGradient>
<linearGradient id="paint19_linear_87_70" x1="706.873" y1="4" x2="28.7395" y2="92.5295" gradientUnits="userSpaceOnUse">
<stop stop-color="#1AA2FF"/>
<stop offset="1" stop-color="#02FAFF"/>
</linearGradient>
<linearGradient id="paint20_linear_87_70" x1="706.873" y1="4" x2="28.7395" y2="92.5295" gradientUnits="userSpaceOnUse">
<stop stop-color="#1AA2FF"/>
<stop offset="1" stop-color="#02FAFF"/>
</linearGradient>
<linearGradient id="paint21_linear_87_70" x1="706.873" y1="4" x2="28.7395" y2="92.5295" gradientUnits="userSpaceOnUse">
<stop stop-color="#1AA2FF"/>
<stop offset="1" stop-color="#02FAFF"/>
</linearGradient>
<linearGradient id="paint22_linear_87_70" x1="706.873" y1="4" x2="28.7395" y2="92.5295" gradientUnits="userSpaceOnUse">
<stop stop-color="#1AA2FF"/>
<stop offset="1" stop-color="#02FAFF"/>
</linearGradient>
</defs>
</svg>
